<svg width="578" height="504" viewBox="0 0 578 504" fill="none" xmlns="http://www.w3.org/2000/svg">
<g opacity="0.51">
<path opacity="0.8" d="M113.404 295.814V344.805" stroke="#C7E3FF" stroke-width="2.05635" stroke-miterlimit="10"/>
<path opacity="0.8" d="M146.793 189.212V206.486" stroke="#C7E3FF" stroke-width="2.05635" stroke-miterlimit="10"/>
<path opacity="0.8" d="M123.729 448.544H316.32" stroke="#C7E3FF" stroke-width="2.05635" stroke-miterlimit="10"/>
<path opacity="0.8" d="M231.795 422.571V449.527" stroke="#C7E3FF" stroke-width="2.05635" stroke-miterlimit="10"/>
<path opacity="0.8" d="M196.883 476.061L196.883 481.703" stroke="#C7E3FF" stroke-width="2.05635" stroke-miterlimit="10"/>
<path d="M432.53 210.575V246.731" stroke="#C7E3FF" stroke-width="2.05635" stroke-miterlimit="10"/>
<path d="M453.503 228.652H432.53" stroke="#C7E3FF" stroke-width="2.05635" stroke-miterlimit="10"/>
<path d="M499.373 193.236V210.896" stroke="#C7E3FF" stroke-width="2.05635" stroke-miterlimit="10"/>
<path d="M529.16 231.321V211.024" stroke="#C7E3FF" stroke-width="2.05635" stroke-miterlimit="10"/>
<path d="M380.194 202.049V112.689H520.41" stroke="#C7E3FF" stroke-width="2.05635" stroke-miterlimit="10"/>
<path d="M458.939 144.599H380.194" stroke="#C7E3FF" stroke-width="2.05635" stroke-miterlimit="10"/>
<path d="M428.718 131.828V144.598" stroke="#C7E3FF" stroke-width="2.05635" stroke-miterlimit="10"/>
<path d="M491.107 138.23V112.689" stroke="#C7E3FF" stroke-width="2.05635" stroke-miterlimit="10"/>
<path d="M399.366 246.73H507.64" stroke="#C7E3FF" stroke-width="2.05635" stroke-miterlimit="10"/>
<path d="M407.858 211.571V172.521H533.181" stroke="#C7E3FF" stroke-width="2.05635" stroke-miterlimit="10"/>
<path d="M507.639 152.223V172.52" stroke="#C7E3FF" stroke-width="2.05635" stroke-miterlimit="10"/>
<path d="M505 72L505 113" stroke="#C7E3FF" stroke-width="2.05635" stroke-miterlimit="10"/>
<path d="M549.683 211.571H458.939V172.521" stroke="#C7E3FF" stroke-width="2.05635" stroke-miterlimit="10"/>
<path d="M407.858 246.73V304.695H542.188" stroke="#C7E3FF" stroke-width="2.05635" stroke-miterlimit="10"/>
<path d="M516.133 272.27H444.046" stroke="#C7E3FF" stroke-width="2.05635" stroke-miterlimit="10"/>
<path d="M486.603 292.761V273.107" stroke="#C7E3FF" stroke-width="2.05635" stroke-miterlimit="10"/>
<path d="M368.678 282.114V347.51H496.349" stroke="#C7E3FF" stroke-width="2.05635" stroke-miterlimit="10"/>
<path d="M424.906 323.351H368.678" stroke="#C7E3FF" stroke-width="2.05635" stroke-miterlimit="10"/>
<path d="M467.463 327.598V347.51" stroke="#C7E3FF" stroke-width="2.05635" stroke-miterlimit="10"/>
<path d="M513.655 327.598V304.695" stroke="#C7E3FF" stroke-width="2.05635" stroke-miterlimit="10"/>
<path d="M329.486 145.023H380.27" stroke="#C7E3FF" stroke-width="2.05635" stroke-miterlimit="10"/>
<path d="M303.154 117.715H353.938" stroke="#C7E3FF" stroke-width="2.05635" stroke-miterlimit="10"/>
<path d="M353.938 103.643L353.938 145.023" stroke="#C7E3FF" stroke-width="2.05635" stroke-miterlimit="10"/>
<path opacity="0.8" d="M112.213 304.466C118.573 304.466 123.729 299.31 123.729 292.95C123.729 286.59 118.573 281.434 112.213 281.434C105.853 281.434 100.697 286.59 100.697 292.95C100.697 299.31 105.853 304.466 112.213 304.466Z" fill="#C7E3FF"/>
<path opacity="0.8" d="M231.795 428.328C234.975 428.328 237.553 425.75 237.553 422.57C237.553 419.39 234.975 416.812 231.795 416.812C228.615 416.812 226.037 419.39 226.037 422.57C226.037 425.75 228.615 428.328 231.795 428.328Z" fill="#C7E3FF"/>
<path opacity="0.8" d="M196.883 476.061C202.076 476.061 206.287 471.85 206.287 466.656C206.287 461.462 202.076 457.252 196.883 457.252C191.689 457.252 187.478 461.462 187.478 466.656C187.478 471.85 191.689 476.061 196.883 476.061Z" fill="#C7E3FF"/>
<path opacity="0.8" d="M146.793 189.212C149.973 189.212 152.551 186.634 152.551 183.454C152.551 180.274 149.973 177.696 146.793 177.696C143.613 177.696 141.035 180.274 141.035 183.454C141.035 186.634 143.613 189.212 146.793 189.212Z" fill="#C7E3FF"/>
<path opacity="0.8" d="M93.156 395.032C96.6735 395.032 99.5251 392.181 99.5251 388.663C99.5251 385.145 96.6735 382.294 93.156 382.294C89.6384 382.294 86.7869 385.145 86.7869 388.663C86.7869 392.181 89.6384 395.032 93.156 395.032Z" fill="#C7E3FF"/>
<path opacity="0.8" d="M89.3281 179.641V203.541" stroke="#C7E3FF" stroke-width="2.05635" stroke-miterlimit="10"/>
<path opacity="0.8" d="M48.9905 231.206V203.735" stroke="#C7E3FF" stroke-width="2.05635" stroke-miterlimit="10"/>
<path opacity="0.8" d="M250.678 356.568V70.5952H60.8601" stroke="#C7E3FF" stroke-width="2.05635" stroke-miterlimit="10"/>
<path opacity="0.8" d="M144.076 113.795H250.678" stroke="#C7E3FF" stroke-width="2.05635" stroke-miterlimit="10"/>
<path opacity="0.8" d="M134.484 47.6304L177.745 47.6304" stroke="#C7E3FF" stroke-width="2.05635" stroke-miterlimit="10"/>
<path opacity="0.8" d="M177.745 31.6431L177.745 71.142" stroke="#C7E3FF" stroke-width="2.05635" stroke-miterlimit="10"/>
<path opacity="0.8" d="M100.522 105.175V70.5952" stroke="#C7E3FF" stroke-width="2.05635" stroke-miterlimit="10"/>
<path opacity="0.8" d="M250.63 252.114H78.1338" stroke="#C7E3FF" stroke-width="2.05635" stroke-miterlimit="10"/>
<path opacity="0.8" d="M213.204 252.178V151.592H43.5542" stroke="#C7E3FF" stroke-width="2.05635" stroke-miterlimit="10"/>
<path opacity="0.8" d="M78.1338 124.153V151.591" stroke="#C7E3FF" stroke-width="2.05635" stroke-miterlimit="10"/>
<path opacity="0.8" d="M21.1973 204.475H144.076V151.592" stroke="#C7E3FF" stroke-width="2.05635" stroke-miterlimit="10"/>
<path opacity="0.8" d="M250.159 330.602L31.3628 330.602" stroke="#C7E3FF" stroke-width="2.05635" stroke-miterlimit="10"/>
<path opacity="0.8" d="M66.6179 286.695H250.63" stroke="#C7E3FF" stroke-width="2.05635" stroke-miterlimit="10"/>
<path opacity="0.8" d="M106.603 314.389V287.787" stroke="#C7E3FF" stroke-width="2.05635" stroke-miterlimit="10"/>
<path opacity="0.8" d="M386.525 388.567L266.279 388.567H93.3806" stroke="#C7E3FF" stroke-width="2.05635" stroke-miterlimit="10"/>
<path opacity="0.8" d="M132.53 361.612V388.568" stroke="#C7E3FF" stroke-width="2.05635" stroke-miterlimit="10"/>
<path opacity="0.8" d="M69.9949 361.611V330.602" stroke="#C7E3FF" stroke-width="2.05635" stroke-miterlimit="10"/>
<path opacity="0.8" d="M48.9905 85.0058C56.9494 85.0058 63.4014 78.5539 63.4014 70.595C63.4014 62.6361 56.9494 56.1841 48.9905 56.1841C41.0316 56.1841 34.5796 62.6361 34.5796 70.595C34.5796 78.5539 41.0316 85.0058 48.9905 85.0058Z" fill="#C7E3FF"/>
<path opacity="0.8" d="M14.4109 217.535C22.3698 217.535 28.8218 211.083 28.8218 203.124C28.8218 195.165 22.3698 188.713 14.4109 188.713C6.45197 188.713 0 195.165 0 203.124C0 211.083 6.45197 217.535 14.4109 217.535Z" fill="#C7E3FF"/>
<path opacity="0.8" d="M77.8124 131.101C82.5913 131.101 86.4654 127.227 86.4654 122.448C86.4654 117.669 82.5913 113.795 77.8124 113.795C73.0335 113.795 69.1594 117.669 69.1594 122.448C69.1594 127.227 73.0335 131.101 77.8124 131.101Z" fill="#C7E3FF"/>
<path opacity="0.8" d="M144.077 119.554C147.257 119.554 149.835 116.977 149.835 113.796C149.835 110.616 147.257 108.039 144.077 108.039C140.897 108.039 138.319 110.616 138.319 113.796C138.319 116.977 140.897 119.554 144.077 119.554Z" fill="#C7E3FF"/>
<path opacity="0.8" d="M146.94 234.841C151.719 234.841 155.593 230.967 155.593 226.188C155.593 221.409 151.719 217.535 146.94 217.535C142.161 217.535 138.287 221.409 138.287 226.188C138.287 230.967 142.161 234.841 146.94 234.841Z" fill="#C7E3FF"/>
<path opacity="0.8" d="M57.6115 298.21C63.9716 298.21 69.1274 293.055 69.1274 286.695C69.1274 280.335 63.9716 275.179 57.6115 275.179C51.2515 275.179 46.0957 280.335 46.0957 286.695C46.0957 293.055 51.2515 298.21 57.6115 298.21Z" fill="#C7E3FF"/>
<path opacity="0.8" d="M69.1592 378.886C75.5192 378.886 80.675 373.73 80.675 367.37C80.675 361.01 75.5192 355.854 69.1592 355.854C62.7991 355.854 57.6433 361.01 57.6433 367.37C57.6433 373.73 62.7991 378.886 69.1592 378.886Z" fill="#C7E3FF"/>
<path opacity="0.8" d="M37.443 159.923C42.2219 159.923 46.096 156.049 46.096 151.27C46.096 146.491 42.2219 142.617 37.443 142.617C32.6641 142.617 28.79 146.491 28.79 151.27C28.79 156.049 32.6641 159.923 37.443 159.923Z" fill="#C7E3FF"/>
<path opacity="0.8" d="M31.6854 338.547C36.4643 338.547 40.3384 334.673 40.3384 329.894C40.3384 325.115 36.4643 321.241 31.6854 321.241C26.9065 321.241 23.0325 325.115 23.0325 329.894C23.0325 334.673 26.9065 338.547 31.6854 338.547Z" fill="#C7E3FF"/>
<path opacity="0.8" d="M106.602 318.38C109.782 318.38 112.36 315.802 112.36 312.622C112.36 309.442 109.782 306.864 106.602 306.864C103.422 306.864 100.844 309.442 100.844 312.622C100.844 315.802 103.422 318.38 106.602 318.38Z" fill="#C7E3FF"/>
<path opacity="0.8" d="M89.3277 180.06C92.5078 180.06 95.0857 177.482 95.0857 174.302C95.0857 171.122 92.5078 168.544 89.3277 168.544C86.1477 168.544 83.5698 171.122 83.5698 174.302C83.5698 177.482 86.1477 180.06 89.3277 180.06Z" fill="#C7E3FF"/>
<path opacity="0.8" d="M48.9903 234.808C52.1704 234.808 54.7483 232.23 54.7483 229.05C54.7483 225.87 52.1704 223.292 48.9903 223.292C45.8103 223.292 43.2324 225.87 43.2324 229.05C43.2324 232.23 45.8103 234.808 48.9903 234.808Z" fill="#C7E3FF"/>
<path opacity="0.8" d="M132.529 367.37C135.709 367.37 138.287 364.792 138.287 361.612C138.287 358.432 135.709 355.854 132.529 355.854C129.349 355.854 126.771 358.432 126.771 361.612C126.771 364.792 129.349 367.37 132.529 367.37Z" fill="#C7E3FF"/>
<path opacity="0.8" d="M74.9173 257.872C78.0974 257.872 80.6753 255.294 80.6753 252.114C80.6753 248.934 78.0974 246.356 74.9173 246.356C71.7373 246.356 69.1594 248.934 69.1594 252.114C69.1594 255.294 71.7373 257.872 74.9173 257.872Z" fill="#C7E3FF"/>
<path opacity="0.8" d="M177.86 37.5158C181.04 37.5158 183.618 34.9379 183.618 31.7579C183.618 28.5779 181.04 26 177.86 26C174.68 26 172.102 28.5779 172.102 31.7579C172.102 34.9379 174.68 37.5158 177.86 37.5158Z" fill="#C7E3FF"/>
<path opacity="0.8" d="M130.722 54.2137C134.877 54.2137 138.246 50.8453 138.246 46.6901C138.246 42.5349 134.877 39.1665 130.722 39.1665C126.567 39.1665 123.199 42.5349 123.199 46.6901C123.199 50.8453 126.567 54.2137 130.722 54.2137Z" fill="#C7E3FF"/>
<path opacity="0.8" d="M100.844 113.828C105.623 113.828 109.497 109.954 109.497 105.175C109.497 100.396 105.623 96.522 100.844 96.522C96.0652 96.522 92.1912 100.396 92.1912 105.175C92.1912 109.954 96.0652 113.828 100.844 113.828Z" fill="#C7E3FF"/>
<path opacity="0.8" d="M117.971 460.059C124.331 460.059 129.487 454.903 129.487 448.543C129.487 442.183 124.331 437.027 117.971 437.027C111.611 437.027 106.455 442.183 106.455 448.543C106.455 454.903 111.611 460.059 117.971 460.059Z" fill="#C7E3FF"/>
<path d="M529.16 123.337C535.041 123.337 539.808 118.57 539.808 112.689C539.808 106.809 535.041 102.042 529.16 102.042C523.28 102.042 518.513 106.809 518.513 112.689C518.513 118.57 523.28 123.337 529.16 123.337Z" fill="#C7E3FF"/>
<path d="M554.701 221.222C560.581 221.222 565.348 216.455 565.348 210.575C565.348 204.694 560.581 199.927 554.701 199.927C548.82 199.927 544.053 204.694 544.053 210.575C544.053 216.455 548.82 221.222 554.701 221.222Z" fill="#C7E3FF"/>
<path d="M507.896 157.37C511.414 157.37 514.266 154.518 514.266 151C514.266 147.483 511.414 144.631 507.896 144.631C504.379 144.631 501.527 147.483 501.527 151C501.527 154.518 504.379 157.37 507.896 157.37Z" fill="#C7E3FF"/>
<path d="M505.369 75.7382C508.887 75.7382 511.738 72.8867 511.738 69.3691C511.738 65.8515 508.887 63 505.369 63C501.852 63 499 65.8515 499 69.3691C499 72.8867 501.852 75.7382 505.369 75.7382Z" fill="#C7E3FF"/>
<path d="M458.938 148.846C461.283 148.846 463.184 146.945 463.184 144.6C463.184 142.255 461.283 140.354 458.938 140.354C456.593 140.354 454.692 142.255 454.692 144.6C454.692 146.945 456.593 148.846 458.938 148.846Z" fill="#C7E3FF"/>
<path d="M329.03 148.846C326.685 148.846 324.784 146.945 324.784 144.6C324.784 142.255 326.685 140.354 329.03 140.354C331.375 140.354 333.276 142.255 333.276 144.6C333.276 146.945 331.375 148.846 329.03 148.846Z" fill="#C7E3FF"/>
<path d="M302.683 124.333C298.788 124.333 295.63 121.175 295.63 117.279C295.63 113.384 298.788 110.226 302.683 110.226C306.579 110.226 309.737 113.384 309.737 117.279C309.737 121.175 306.579 124.333 302.683 124.333Z" fill="#C7E3FF"/>
<path d="M433.397 216.976C438.105 216.976 441.922 213.159 441.922 208.452C441.922 203.744 438.105 199.927 433.397 199.927C428.69 199.927 424.873 203.744 424.873 208.452C424.873 213.159 428.69 216.976 433.397 216.976Z" fill="#C7E3FF"/>
<path d="M456.816 233.959C460.333 233.959 463.185 231.108 463.185 227.59C463.185 224.073 460.333 221.221 456.816 221.221C453.298 221.221 450.447 224.073 450.447 227.59C450.447 231.108 453.298 233.959 456.816 233.959Z" fill="#C7E3FF"/>
<path d="M522.79 280.794C527.498 280.794 531.315 276.978 531.315 272.27C531.315 267.562 527.498 263.746 522.79 263.746C518.083 263.746 514.266 267.562 514.266 272.27C514.266 276.978 518.083 280.794 522.79 280.794Z" fill="#C7E3FF"/>
<path d="M514.266 340.4C518.974 340.4 522.79 336.583 522.79 331.875C522.79 327.168 518.974 323.351 514.266 323.351C509.558 323.351 505.742 327.168 505.742 331.875C505.742 336.583 509.558 340.4 514.266 340.4Z" fill="#C7E3FF"/>
<path d="M537.684 178.632C541.202 178.632 544.053 175.781 544.053 172.263C544.053 168.746 541.202 165.894 537.684 165.894C534.167 165.894 531.315 168.746 531.315 172.263C531.315 175.781 534.167 178.632 537.684 178.632Z" fill="#C7E3FF"/>
<path d="M541.93 310.581C545.447 310.581 548.299 307.73 548.299 304.212C548.299 300.695 545.447 297.843 541.93 297.843C538.412 297.843 535.561 300.695 535.561 304.212C535.561 307.73 538.412 310.581 541.93 310.581Z" fill="#C7E3FF"/>
<path d="M496.061 353.653C499.578 353.653 502.43 350.802 502.43 347.284C502.43 343.767 499.578 340.915 496.061 340.915C492.543 340.915 489.691 343.767 489.691 347.284C489.691 350.802 492.543 353.653 496.061 353.653Z" fill="#C7E3FF"/>
<path d="M486.602 295.688C488.947 295.688 490.848 293.787 490.848 291.442C490.848 289.097 488.947 287.196 486.602 287.196C484.257 287.196 482.356 289.097 482.356 291.442C482.356 293.787 484.257 295.688 486.602 295.688Z" fill="#C7E3FF"/>
<path d="M499.373 193.525C501.718 193.525 503.619 191.624 503.619 189.279C503.619 186.934 501.718 185.033 499.373 185.033C497.028 185.033 495.127 186.934 495.127 189.279C495.127 191.624 497.028 193.525 499.373 193.525Z" fill="#C7E3FF"/>
<path d="M529.159 233.959C531.504 233.959 533.405 232.058 533.405 229.713C533.405 227.368 531.504 225.467 529.159 225.467C526.814 225.467 524.913 227.368 524.913 229.713C524.913 232.058 526.814 233.959 529.159 233.959Z" fill="#C7E3FF"/>
<path d="M467.464 331.843C469.809 331.843 471.71 329.942 471.71 327.597C471.71 325.252 469.809 323.351 467.464 323.351C465.119 323.351 463.218 325.252 463.218 327.597C463.218 329.942 465.119 331.843 467.464 331.843Z" fill="#C7E3FF"/>
<path d="M510.021 250.976C512.366 250.976 514.267 249.075 514.267 246.73C514.267 244.385 512.366 242.484 510.021 242.484C507.676 242.484 505.775 244.385 505.775 246.73C505.775 249.075 507.676 250.976 510.021 250.976Z" fill="#C7E3FF"/>
<path d="M428.717 131.829C431.063 131.829 432.964 129.928 432.964 127.583C432.964 125.238 431.063 123.337 428.717 123.337C426.372 123.337 424.471 125.238 424.471 127.583C424.471 129.928 426.372 131.829 428.717 131.829Z" fill="#C7E3FF"/>
<path d="M353.481 106.492C355.826 106.492 357.727 104.591 357.727 102.246C357.727 99.901 355.826 98 353.481 98C351.136 98 349.235 99.901 349.235 102.246C349.235 104.591 351.136 106.492 353.481 106.492Z" fill="#C7E3FF"/>
<path d="M490.849 144.599C494.366 144.599 497.218 141.747 497.218 138.23C497.218 134.712 494.366 131.861 490.849 131.861C487.331 131.861 484.479 134.712 484.479 138.23C484.479 141.747 487.331 144.599 490.849 144.599Z" fill="#C7E3FF"/>
<path d="M429.152 331.875C433.86 331.875 437.676 328.059 437.676 323.351C437.676 318.643 433.86 314.827 429.152 314.827C424.444 314.827 420.628 318.643 420.628 323.351C420.628 328.059 424.444 331.875 429.152 331.875Z" fill="#C7E3FF"/>
</g>
<circle cx="283" cy="292.583" r="189" fill="url(#paint0_linear_3894_6556)"/>
<path d="M289.332 504C448.551 504 577.623 485.094 577.623 461.773C577.623 438.452 448.551 419.546 289.332 419.546C130.114 419.546 1.04126 438.452 1.04126 461.773C1.04126 485.094 130.114 504 289.332 504Z" fill="url(#paint1_linear_3894_6556)"/>
<path opacity="0.07" d="M212.252 467.653C245.529 467.653 272.504 463.653 272.504 458.718C272.504 453.783 245.529 449.783 212.252 449.783C178.976 449.783 152 453.783 152 458.718C152 463.653 178.976 467.653 212.252 467.653Z" fill="#27374F" fill-opacity="0.7"/>
<circle cx="461" cy="131.414" r="25" fill="url(#paint2_linear_3894_6556)"/>
<g filter="url(#filter0_d_3894_6556)">
<path d="M430 131.914C430 145.997 441.417 157.414 455.5 157.414C460.02 157.414 464.265 156.238 467.946 154.175C469.644 153.224 474.473 157.565 477.812 154.985C473.866 152.708 474.55 148.918 475.384 147.88C478.897 143.51 481 137.957 481 131.914C481 117.83 469.583 106.414 455.5 106.414C441.417 106.414 430 117.83 430 131.914Z" fill="white"/>
</g>
<path d="M449.923 103.557C449.923 100.841 452.125 98.6393 454.841 98.6393H463.162C465.878 98.6393 468.08 100.841 468.08 103.557V115.31H449.923V103.557Z" stroke="url(#paint3_linear_3894_6556)" stroke-width="3.27858"/>
<path fill-rule="evenodd" clip-rule="evenodd" d="M446.339 113.007C444.199 113.007 442.464 114.742 442.464 116.882V133.539C442.464 135.679 444.199 137.413 446.339 137.413H467.876C470.016 137.413 471.751 135.679 471.751 133.539V116.882C471.751 114.742 470.016 113.007 467.876 113.007H446.339ZM457.108 134.047C461.929 134.047 465.838 130.138 465.838 125.316C465.838 120.495 461.929 116.586 457.108 116.586C452.286 116.586 448.377 120.495 448.377 125.316C448.377 130.138 452.286 134.047 457.108 134.047Z" fill="url(#paint4_linear_3894_6556)"/>
<path fill-rule="evenodd" clip-rule="evenodd" d="M444.464 114.882C444.464 112.742 446.199 111.007 448.339 111.007H469.876C472.016 111.007 473.751 112.742 473.751 114.882V131.539C473.751 133.679 472.016 135.413 469.876 135.413H448.339C446.199 135.413 444.464 133.679 444.464 131.539V114.882ZM459.957 125.942C461.065 125.584 461.867 124.544 461.867 123.316C461.867 121.792 460.632 120.557 459.108 120.557C457.584 120.557 456.349 121.792 456.349 123.316C456.349 124.544 457.151 125.584 458.259 125.942V128.622C458.259 129.091 458.639 129.471 459.108 129.471C459.577 129.471 459.957 129.091 459.957 128.622V125.942Z" fill="url(#paint5_linear_3894_6556)"/>
<path d="M473.751 114.738C473.751 114.738 471.024 124.424 466.63 128.671C461.17 133.949 448.39 135.413 448.39 135.413H469.877C472.016 135.413 473.751 133.678 473.751 131.538L473.751 114.738Z" fill="url(#paint6_linear_3894_6556)"/>
<circle cx="155" cy="166" r="17" fill="url(#paint7_linear_3894_6556)"/>
<g filter="url(#filter1_d_3894_6556)">
<path d="M167.279 166.64C167.279 175.277 160.277 182.279 151.64 182.279C148.868 182.279 146.264 181.558 144.006 180.293C142.965 179.71 140.003 182.372 137.955 180.79C140.375 179.393 139.956 177.069 139.444 176.432C137.29 173.752 136 170.346 136 166.64C136 158.002 143.002 151 151.64 151C160.277 151 167.279 158.002 167.279 166.64Z" fill="white"/>
</g>
<rect x="142.249" y="166.66" width="18.7815" height="1.58731" rx="0.793654" fill="#C9E2FB"/>
<rect x="142.249" y="162.692" width="18.7815" height="1.58731" rx="0.793654" fill="#C9E2FB"/>
<rect x="142.249" y="170.628" width="10.7323" height="1.58731" rx="0.793654" fill="#C9E2FB"/>
<circle cx="274.158" cy="169.158" r="24.1582" fill="url(#paint8_linear_3894_6556)"/>
<g filter="url(#filter2_d_3894_6556)">
<path d="M255.892 171.431C255.892 184.448 266.444 195 279.461 195C283.639 195 287.562 193.913 290.965 192.007C292.534 191.128 296.998 195.14 300.084 192.756C296.436 190.651 297.068 187.148 297.839 186.189C301.087 182.149 303.03 177.017 303.03 171.431C303.03 158.414 292.478 147.862 279.461 147.862C266.444 147.862 255.892 158.414 255.892 171.431Z" fill="white"/>
</g>
<rect x="267.853" y="171.079" width="24.6243" height="1.4071" rx="0.703551" fill="#C9E2FB"/>
<rect x="267.853" y="167.561" width="24.6243" height="1.4071" rx="0.703551" fill="#C9E2FB"/>
<rect x="267.853" y="174.596" width="14.071" height="1.4071" rx="0.703551" fill="#C9E2FB"/>
<path opacity="0.1" d="M296.161 449.562C308.874 449.562 319.18 447.393 319.18 444.716C319.18 442.04 308.874 439.87 296.161 439.87C283.448 439.87 273.142 442.04 273.142 444.716C273.142 447.393 283.448 449.562 296.161 449.562Z" fill="#27374F"/>
<path d="M303.425 334.648C303.028 335.88 302.269 336.964 301.248 337.758C301.973 337.408 302.667 336.995 303.321 336.524C303.321 337.001 303.259 337.468 303.207 337.924C303.155 338.38 303.093 338.961 303.02 339.406C303.02 339.541 303.02 339.697 302.948 339.832C302.886 340.174 302.813 340.516 302.741 340.868C302.668 341.221 302.647 341.21 302.606 341.366C302.564 341.521 302.502 341.718 302.44 341.884C302.378 342.05 302.347 342.175 302.295 342.309C302.188 342.598 302.06 342.879 301.911 343.149C301.852 343.27 301.786 343.388 301.714 343.502V343.554C301.642 343.678 301.559 343.792 301.486 343.896L301.248 344.207C301.185 344.279 301.134 344.352 301.071 344.414C300.786 344.712 300.462 344.97 300.107 345.181C300.035 345.229 299.958 345.27 299.879 345.306L299.62 345.43L299.236 345.575L298.884 345.679H298.739C298.625 345.679 298.49 345.679 298.365 345.741H297.971C297.035 345.801 296.095 345.721 295.183 345.503C294.801 345.415 294.434 345.271 294.094 345.078C290.673 343.17 287.946 336.089 287.946 326.675C287.946 325.182 287.946 323.772 288.07 322.456C288.942 322.545 289.822 322.507 290.683 322.342C289.823 322.342 288.941 320.372 288.413 318.962C289.221 313.063 291.077 309.455 293.949 309.061C296.022 308.791 298.096 310.097 299.755 312.617L300.076 313.104C300.159 313.249 300.252 313.394 300.335 313.55C300.418 313.705 300.522 313.861 300.605 314.016C300.688 314.172 300.833 314.441 300.926 314.659C301.02 314.877 301.165 315.136 301.268 315.385C301.372 315.634 301.496 315.903 301.6 316.173L301.88 316.888C302.025 317.303 302.16 317.718 302.284 318.153C302.409 318.588 302.575 319.19 302.699 319.677C302.699 319.677 302.699 319.677 302.699 319.739C302.772 320.04 302.834 320.341 302.896 320.652C302.958 320.963 303.02 321.305 303.083 321.626C303.145 321.948 303.155 322.113 303.186 322.362C302.796 323.923 301.913 325.315 300.667 326.333C301.616 325.941 302.544 325.498 303.446 325.006C303.446 325.276 303.446 325.545 303.446 325.815C303.446 326.084 303.446 326.54 303.446 326.914C303.425 329.62 303.487 332.232 303.425 334.648Z" fill="url(#paint9_linear_3894_6556)"/>
<path d="M318.634 348.127C314.767 355.322 311.605 362.745 305.965 357.893C305.614 357.573 305.332 357.185 305.135 356.753C304.212 354.835 304.337 351.569 305.612 347.608C306.237 348.446 307.005 349.166 307.883 349.734C307.074 348.904 306.763 346.624 306.638 344.923C307.022 344.032 307.457 343.119 307.955 342.197C309.217 339.745 310.739 337.437 312.496 335.313C312.759 336.233 313.247 337.074 313.916 337.759C313.502 336.526 314.062 334.649 314.539 333.363C316.042 332.202 317.441 331.798 318.686 332.254C319.297 332.533 319.833 332.953 320.251 333.479C320.669 334.005 320.957 334.623 321.091 335.281C321.92 338.371 321.226 343.296 318.634 348.127Z" fill="url(#paint10_linear_3894_6556)"/>
<path d="M279.382 400.834C279.223 400.909 279.056 400.969 278.884 401.01C276.811 401.487 273.244 399.517 269.979 395.609L269.439 394.945C270.093 394.651 270.69 394.244 271.202 393.742C270.197 393.751 269.197 393.604 268.237 393.307C265.997 390.103 265.251 387.584 266.423 386.309C267.594 385.034 269.533 385.272 271.834 386.516C273.6 387.48 275.163 388.775 276.438 390.331C277.329 391.368 278.231 392.405 279.029 393.442C279.175 394.478 279.258 395.723 278.77 395.93C279.355 395.883 279.905 395.634 280.325 395.225C281.777 397.506 282.057 399.445 279.382 400.834Z" fill="url(#paint11_linear_3894_6556)"/>
<path d="M335.772 368.717C334.818 373.545 332.896 378.13 330.121 382.195C328.32 382.448 326.542 382.843 324.803 383.377C323.813 383.704 322.85 384.106 321.921 384.579C322.476 384.57 323.031 384.612 323.579 384.704C324.91 384.898 326.199 385.311 327.395 385.927C319.287 396.751 312.144 407.274 304.151 397.891C303.563 397.177 303.147 396.336 302.938 395.434C301.6 390.25 304.576 381.023 311.76 371.589C315.907 366.094 319.889 361.957 323.414 359.48C324.18 360.985 324.452 362.694 324.191 364.363C325.228 362.932 325.383 360.07 325.404 358.225C328.245 356.67 330.733 356.349 332.661 357.458C335.689 359.065 336.725 363.367 335.772 368.717Z" fill="url(#paint12_linear_3894_6556)"/>
<path d="M283.984 388.405C283.553 388.37 283.128 388.279 282.72 388.135C280.729 387.472 278.718 385.637 276.903 382.848C274.125 378.618 271.823 372.2 270.745 364.404C269.802 357.561 269.708 351.838 270.424 347.598C272.033 348.115 273.434 349.132 274.426 350.501C274.115 348.79 272.238 346.624 270.942 345.317C271.854 342.207 273.389 340.216 275.566 339.605C277.743 338.993 280.159 339.812 282.44 341.74C284.893 343.972 286.859 346.686 288.214 349.713C289.605 352.659 290.628 355.765 291.262 358.961C290.294 360.248 289.424 361.606 288.66 363.025C288.068 364.129 287.569 365.28 287.167 366.467C287.589 366.037 288.051 365.648 288.546 365.306C289.597 364.547 290.758 363.952 291.988 363.543C293.917 376.917 296.291 389.41 283.984 388.405Z" fill="url(#paint13_linear_3894_6556)"/>
<path opacity="0.56" d="M303.425 334.649C303.028 335.881 302.27 336.965 301.248 337.759C301.974 337.409 302.667 336.996 303.321 336.526C303.321 337.003 303.259 337.469 303.207 337.925C303.155 338.382 303.093 338.962 303.021 339.408C303.021 339.543 303.021 339.698 302.948 339.833C302.886 340.175 302.813 340.517 302.741 340.87C302.668 341.222 302.647 341.212 302.606 341.367C302.565 341.523 302.502 341.72 302.44 341.886C302.378 342.052 302.347 342.176 302.295 342.311C302.188 342.6 302.06 342.881 301.911 343.151C301.852 343.271 301.786 343.389 301.714 343.503V343.555C301.642 343.679 301.559 343.793 301.486 343.897L301.248 344.208C301.186 344.281 301.134 344.353 301.072 344.415C300.786 344.714 300.462 344.972 300.107 345.183C300.035 345.23 299.959 345.272 299.879 345.307L299.62 345.431L299.237 345.577L298.884 345.68H298.739C298.625 345.68 298.49 345.68 298.366 345.742H297.972C297.035 345.802 296.095 345.722 295.183 345.504C294.801 345.416 294.434 345.273 294.094 345.079C299.942 336.101 299.931 318.465 299.755 312.618L300.076 313.105C300.159 313.251 300.253 313.396 300.336 313.551C300.418 313.707 300.522 313.862 300.605 314.018C300.688 314.173 300.833 314.443 300.926 314.661C301.02 314.878 301.165 315.137 301.269 315.386C301.372 315.635 301.497 315.905 301.6 316.174L301.88 316.89C302.025 317.304 302.16 317.719 302.285 318.154C302.409 318.59 302.575 319.191 302.699 319.678C302.699 319.678 302.699 319.678 302.699 319.741C302.772 320.041 302.834 320.342 302.896 320.653C302.958 320.964 303.021 321.306 303.083 321.628C303.145 321.949 303.155 322.115 303.187 322.364C302.797 323.924 301.913 325.317 300.667 326.334C301.617 325.943 302.544 325.5 303.446 325.007C303.446 325.277 303.446 325.546 303.446 325.816C303.446 326.086 303.446 326.542 303.446 326.915C303.425 329.621 303.487 332.234 303.425 334.649Z" fill="#17829C"/>
<path d="M288.059 388.144C286.725 388.457 285.348 388.545 283.985 388.403C283.553 388.368 283.128 388.277 282.72 388.133C289.448 375.786 284.399 350.25 282.44 341.718C284.893 343.949 286.859 346.664 288.215 349.69C289.605 352.637 290.629 355.743 291.263 358.938C290.294 360.225 289.424 361.584 288.66 363.002C288.068 364.106 287.569 365.258 287.168 366.444C287.589 366.015 288.051 365.626 288.546 365.283C288.998 364.957 289.468 364.659 289.956 364.392C290.623 364.045 291.316 363.754 292.03 363.521C293.668 375.184 295.69 386.153 288.059 388.144Z" fill="#188AA5"/>
<path d="M293.534 312.451C295.203 316.432 295.607 320.807 296.312 325.037C297.453 333.58 298.044 342.185 298.541 350.79C299.661 372.313 299.806 393.868 299.723 415.401C299.731 415.443 299.73 415.486 299.719 415.528C299.709 415.569 299.689 415.608 299.662 415.64C299.635 415.673 299.601 415.7 299.562 415.718C299.523 415.736 299.481 415.746 299.438 415.746C299.396 415.746 299.353 415.736 299.315 415.718C299.276 415.7 299.242 415.673 299.215 415.64C299.187 415.608 299.168 415.569 299.157 415.528C299.146 415.486 299.145 415.443 299.153 415.401C299.35 393.868 299.329 372.324 298.324 350.801C297.868 342.206 297.328 333.611 296.292 325.048C295.628 320.818 295.255 316.443 293.586 312.451H293.534Z" fill="#F7A221"/>
<path opacity="0.6" d="M279.382 400.834C279.222 400.91 279.055 400.969 278.884 401.01C279.475 397.123 274.27 389.751 271.834 386.558C273.6 387.521 275.163 388.817 276.437 390.373C277.329 391.41 278.231 392.447 279.029 393.484C279.174 394.52 279.257 395.764 278.77 395.972C279.355 395.925 279.904 395.676 280.325 395.267C281.776 397.506 282.056 399.445 279.382 400.834Z" fill="#17829C"/>
<path d="M277.465 344.881C283.436 368.447 289.854 392.106 292.176 416.417C292.163 416.484 292.128 416.544 292.076 416.587C292.024 416.63 291.959 416.653 291.891 416.653C291.824 416.653 291.758 416.63 291.706 416.587C291.654 416.544 291.619 416.484 291.606 416.417C289.47 392.178 283.25 368.468 277.465 344.881Z" fill="#F7A221"/>
<path opacity="0.5" d="M318.634 348.127C314.766 355.322 311.604 362.745 305.964 357.893C305.614 357.573 305.332 357.185 305.135 356.753C314.766 356.421 319.712 340.341 321.039 335.271C321.92 338.371 321.225 343.296 318.634 348.127Z" fill="#17829C"/>
<path opacity="0.53" d="M335.77 368.717C334.817 373.545 332.895 378.13 330.12 382.195C328.318 382.448 326.54 382.843 324.801 383.377C328.864 378.808 332.534 373.904 335.77 368.717Z" fill="#17829C"/>
<path opacity="0.53" d="M323.579 384.714C324.909 384.904 326.198 385.314 327.394 385.927C319.286 396.751 312.143 407.274 304.15 397.891C303.562 397.176 303.147 396.335 302.937 395.434C310.018 396.564 317.462 391.162 323.579 384.714Z" fill="#17829C"/>
<path d="M269.584 388.829C277.993 396.646 285.799 406.174 288.246 417.651C288.252 417.688 288.251 417.725 288.243 417.762C288.234 417.798 288.219 417.832 288.197 417.862C288.175 417.893 288.148 417.919 288.116 417.938C288.085 417.958 288.05 417.971 288.013 417.977C287.976 417.984 287.938 417.982 287.902 417.974C287.866 417.966 287.832 417.95 287.801 417.928C287.771 417.907 287.745 417.879 287.725 417.848C287.706 417.816 287.692 417.781 287.686 417.744C285.447 406.34 277.806 396.729 269.595 388.829H269.584Z" fill="#F7A221"/>
<path d="M317.472 336.349C309.033 349.174 302.429 363.522 299.848 378.732C299.829 378.801 299.785 378.862 299.725 378.901C299.664 378.94 299.591 378.955 299.52 378.943C299.449 378.932 299.385 378.894 299.34 378.838C299.295 378.781 299.273 378.71 299.277 378.638C302.056 363.408 308.847 349.163 317.472 336.349Z" fill="#F7A221"/>
<path d="M333.086 357.735C319.359 376.2 306.473 395.878 299.018 417.784C298.995 417.856 298.944 417.915 298.877 417.949C298.81 417.983 298.732 417.989 298.661 417.966C298.589 417.942 298.53 417.891 298.496 417.824C298.462 417.757 298.456 417.679 298.479 417.608C306.12 395.712 319.214 376.138 333.086 357.735Z" fill="#F7A221"/>
<path d="M310.578 416.646V435.94C310.578 438.497 309.563 440.949 307.754 442.757C305.946 444.566 303.494 445.581 300.937 445.581H289.48C288.214 445.581 286.96 445.332 285.791 444.847C284.621 444.363 283.558 443.653 282.663 442.757C281.767 441.862 281.057 440.799 280.573 439.629C280.088 438.459 279.839 437.206 279.839 435.94V416.646H310.578Z" fill="url(#paint14_linear_3894_6556)"/>
<path d="M310.577 416.646V435.94C310.577 438.497 309.561 440.949 307.753 442.757C305.945 444.566 303.492 445.581 300.935 445.581H289.479C287.836 445.58 286.22 445.16 284.785 444.36C283.35 443.56 282.143 442.406 281.278 441.009C301.215 441.082 306.005 425.655 307.104 416.646H310.577Z" fill="url(#paint15_linear_3894_6556)"/>
<path d="M313.294 413.44V416.198C313.303 416.378 313.275 416.557 313.212 416.725C313.149 416.893 313.052 417.047 312.928 417.177C312.804 417.307 312.655 417.41 312.49 417.481C312.325 417.551 312.147 417.588 311.967 417.587H278.459C278.145 417.59 277.841 417.48 277.6 417.279C277.359 417.078 277.197 416.798 277.143 416.488C277.137 416.413 277.137 416.336 277.143 416.26V413.44C277.141 413.265 277.175 413.092 277.241 412.929C277.307 412.767 277.404 412.62 277.528 412.495C277.651 412.371 277.798 412.272 277.96 412.205C278.121 412.138 278.295 412.103 278.47 412.103H311.967C312.142 412.103 312.316 412.138 312.478 412.205C312.639 412.272 312.786 412.371 312.909 412.495C313.033 412.62 313.13 412.767 313.196 412.929C313.262 413.092 313.296 413.265 313.294 413.44Z" fill="url(#paint16_linear_3894_6556)"/>
<path d="M313.294 413.441V416.199C313.303 416.378 313.275 416.558 313.212 416.726C313.149 416.894 313.053 417.048 312.928 417.178C312.804 417.308 312.655 417.411 312.49 417.482C312.325 417.552 312.147 417.588 311.967 417.588H278.46C278.145 417.59 277.841 417.481 277.6 417.28C277.359 417.079 277.197 416.799 277.143 416.489C307.934 417.422 311.138 413.576 311.294 412.166H311.967C312.311 412.166 312.64 412.298 312.888 412.536C313.135 412.774 313.281 413.098 313.294 413.441Z" fill="url(#paint17_linear_3894_6556)"/>
<circle cx="334.5" cy="73.5" r="46.5" fill="url(#paint18_linear_3894_6556)"/>
<g filter="url(#filter3_d_3894_6556)">
<path d="M292 79C292 105.51 313.49 127 340 127C348.508 127 356.499 124.786 363.429 120.904C366.625 119.113 375.714 127.286 382 122.429C374.571 118.143 375.858 111.008 377.429 109.054C384.042 100.828 388 90.3764 388 79C388 52.4903 366.51 31 340 31C313.49 31 292 52.4903 292 79Z" fill="white"/>
</g>
<path d="M417.43 44.7676H312.775C310.958 44.7676 309.486 46.2399 309.486 48.0561V100.766C309.486 102.582 310.958 104.054 312.775 104.054H417.43C419.246 104.054 420.718 102.582 420.718 100.766V48.0561C420.718 46.2399 419.246 44.7676 417.43 44.7676Z" fill="url(#paint19_linear_3894_6556)"/>
<path d="M419.197 43H314.542C312.726 43 311.254 44.4723 311.254 46.2886V98.9983C311.254 100.815 312.726 102.287 314.542 102.287H419.197C421.014 102.287 422.486 100.815 422.486 98.9983V46.2886C422.486 44.4723 421.014 43 419.197 43Z" fill="url(#paint20_linear_3894_6556)"/>
<path d="M311.254 98.9986V47.4194C311.254 47.4194 311.877 85.3295 319.079 93.3782C326.591 101.775 361.502 102.287 361.502 102.287H314.542C312.726 102.287 311.254 100.815 311.254 98.9986Z" fill="url(#paint21_linear_3894_6556)"/>
<path d="M341.986 71.8466L347.958 83.844L356.704 64.2119H365.639L371.611 83.844L375.655 77.0273L378.852 79.6859L380.992 77.0273H384.613L386.094 82.6852L394.841 69.7789L398.038 75.3118L401.236 80.8447H407.184L410.805 77.0273L414.661 82.2308" stroke="url(#paint22_linear_3894_6556)" stroke-width="1.76764" stroke-linecap="round" stroke-linejoin="round"/>
<path d="M352.693 50.9546H403.954" stroke="url(#paint23_linear_3894_6556)" stroke-width="1.76764" stroke-linecap="round" stroke-linejoin="round"/>
<path opacity="0.74" d="M322 60.6846H328.187" stroke="#83CCFF" stroke-width="1.34322" stroke-miterlimit="10" stroke-linecap="round"/>
<path opacity="0.74" d="M322 65.1035H328.187" stroke="#83CCFF" stroke-width="1.34322" stroke-miterlimit="10" stroke-linecap="round"/>
<path opacity="0.74" d="M322 69.5225H328.187" stroke="#83CCFF" stroke-width="1.34322" stroke-miterlimit="10" stroke-linecap="round"/>
<path opacity="0.74" d="M322 73.9419H328.187" stroke="#83CCFF" stroke-width="1.34322" stroke-miterlimit="10" stroke-linecap="round"/>
<path opacity="0.74" d="M322 77.4771H328.187" stroke="#83CCFF" stroke-width="1.34322" stroke-miterlimit="10" stroke-linecap="round"/>
<path opacity="0.74" d="M322 81.896H328.187" stroke="#83CCFF" stroke-width="1.34322" stroke-miterlimit="10" stroke-linecap="round"/>
<path opacity="0.74" d="M322 86.3154H328.187" stroke="#83CCFF" stroke-width="1.34322" stroke-miterlimit="10" stroke-linecap="round"/>
<circle cx="210.447" cy="100.447" r="38.4471" fill="url(#paint24_linear_3894_6556)"/>
<g filter="url(#filter4_d_3894_6556)">
<path d="M261.315 105.549C261.315 128.525 242.69 147.15 219.714 147.15C212.34 147.15 205.414 145.232 199.408 141.867C196.638 140.315 188.76 147.398 183.312 143.188C189.751 139.474 188.636 133.29 187.275 131.597C181.542 124.467 178.112 115.409 178.112 105.549C178.112 82.5729 196.738 63.9473 219.714 63.9473C242.69 63.9473 261.315 82.5729 261.315 105.549Z" fill="white"/>
</g>
<path d="M250.099 62.5949L238.129 49.8301H202.143C200.135 49.8301 198.591 51.5707 198.591 53.643V117.953C198.591 119.788 200.079 121.276 201.914 121.276H247.55C249.017 121.276 250.099 120.033 250.099 118.541V62.5949Z" fill="url(#paint25_linear_3894_6556)"/>
<path d="M251.774 60.5909L245.674 56.8059L240.424 48H204.443C202.436 48 200.892 49.6221 200.892 51.5533V115.512C200.892 117.521 202.513 119.065 204.443 119.065H251.774H251.851V60.5909H251.774Z" fill="url(#paint26_linear_3894_6556)"/>
<path d="M238.815 119.065C238.815 119.065 221.374 113.762 213.315 106C198.278 91.5146 200.892 53.9995 200.892 53.9995L200.892 115.512C200.892 117.52 202.513 119.065 204.443 119.065H238.815Z" fill="url(#paint27_linear_3894_6556)"/>
<path d="M206.123 68.7915H241.846" stroke="url(#paint28_linear_3894_6556)" stroke-width="2" stroke-linecap="round" stroke-linejoin="round"/>
<path d="M206.123 77.0991H241.846" stroke="url(#paint29_linear_3894_6556)" stroke-width="2" stroke-linecap="round" stroke-linejoin="round"/>
<path d="M206.123 85.4067H229.385" stroke="url(#paint30_linear_3894_6556)" stroke-width="2" stroke-linecap="round" stroke-linejoin="round"/>
<path d="M234.369 85.4067L241.015 85.4067" stroke="url(#paint31_linear_3894_6556)" stroke-width="2" stroke-linecap="round" stroke-linejoin="round"/>
<path d="M253.665 62.7537L248.26 59.4321V115.512C248.26 117.52 246.639 119.065 244.709 119.065H250.114C252.121 119.065 253.665 117.443 253.665 115.512V62.7537Z" fill="url(#paint32_linear_3894_6556)"/>
<path d="M253.665 62.7537L248.26 59.4321V115.512C248.26 117.52 246.639 119.065 244.709 119.065H250.114C252.121 119.065 253.665 117.443 253.665 115.512V62.7537Z" fill="url(#paint33_linear_3894_6556)"/>
<path d="M243.991 62.7538H253.663L240.502 48L240.439 59.2005C240.439 61.2089 242.061 62.7538 243.991 62.7538Z" fill="url(#paint34_linear_3894_6556)"/>
<path d="M197.17 258.961C197.17 258.961 204.617 268 214.604 270.084C215.172 270.198 215.741 270.293 216.309 270.368C221.13 270.96 225.993 269.678 229.896 266.787C246.495 255.001 236.718 231.92 227.792 226.273C226.112 225.329 224.651 224.037 223.51 222.483C220.876 218.58 223.396 214.146 221.729 202.075C220.175 190.971 211.666 191.425 205.565 193.282C203.368 193.951 201.247 194.847 199.236 195.954L199.956 214.525L197.17 258.961Z" fill="#2F3F5C"/>
<path d="M147.825 258.582C148.134 258.745 148.432 258.929 148.716 259.131C158.987 265.763 154.647 272.396 158.304 278.08C161.962 283.765 160.01 302.885 173.047 294.604C186.084 286.323 194.971 235.729 194.971 235.729L186.975 222.805L206.284 197.11C205.772 195.911 205.137 194.768 204.389 193.699C203.449 192.385 202.348 191.194 201.111 190.155C199.512 188.815 197.625 187.861 195.597 187.37C192.892 186.753 190.068 186.91 187.448 187.825C178.239 190.724 174.847 204.235 166.737 203.363C158.627 202.491 154.571 210.318 153.7 216.969C152.828 223.62 152.07 224.852 142.103 235.748C134.371 244.142 141.269 254.659 147.825 258.582Z" fill="#2F3F5C"/>
<path d="M180.248 221.518C178.206 222.831 176.652 224.78 175.827 227.065C175.001 229.349 174.95 231.841 175.682 234.157C177.974 242.892 157.68 245.11 167.685 257.161C177.69 269.213 197.17 257.881 197.17 257.881L193.759 229.135L180.248 221.518Z" fill="#27374F"/>
<path d="M196.166 250.262C198.935 249.782 201.51 248.527 203.594 246.643L203.102 246.548C197.417 245.373 199.918 234.401 199.918 234.401L184.588 225.097C184.588 225.097 188.757 243.554 186.919 245.941C186.074 246.625 185.011 246.981 183.925 246.946C185.63 248.307 187.596 249.304 189.701 249.874C191.807 250.444 194.007 250.576 196.166 250.262Z" fill="#FFA398"/>
<path d="M184.588 225.097C185.061 227.466 185.535 229.853 186.028 232.222C186.766 233.748 187.774 235.128 189.003 236.296C191.845 238.875 195.53 240.331 199.368 240.389C199.368 239.669 199.368 238.93 199.368 238.172C199.455 236.05 199.683 233.935 200.05 231.843L184.588 225.097Z" fill="#E8928B"/>
<path d="M246.078 255.417C246.078 255.417 246.4 242.797 248.314 253.029C248.314 253.029 259.475 238.457 252.35 251.419C252.35 251.419 264.421 239.045 253.904 253.124C253.904 253.124 265.69 243.384 255.06 255.19C255.06 255.19 266.751 248.273 254.794 258.108C242.174 268.511 242.629 265.422 242.629 265.422L246.078 255.417Z" fill="#FFA398"/>
<path d="M201.169 265.252L210.833 277.531L216.518 284.694L219.322 288.256L220.213 289.374C220.808 290.111 221.564 290.702 222.423 291.102C223.281 291.502 224.22 291.7 225.167 291.682C226.114 291.664 227.045 291.429 227.887 290.996C228.73 290.563 229.462 289.944 230.029 289.185L249.679 262.655C250.153 261.984 250.365 261.163 250.276 260.346C250.187 259.529 249.803 258.773 249.196 258.219C248.588 257.665 247.8 257.352 246.978 257.339C246.157 257.325 245.359 257.612 244.733 258.145L227.016 273.76L226.39 272.509L224.117 267.923L217.598 254.791C216.989 253.553 216.126 252.456 215.065 251.573C214.004 250.69 212.769 250.04 211.44 249.666C210.112 249.291 208.719 249.201 207.353 249.4C205.987 249.599 204.679 250.084 203.512 250.822C202.346 251.56 201.348 252.536 200.584 253.685C199.819 254.834 199.305 256.132 199.075 257.493C198.845 258.854 198.905 260.248 199.249 261.585C199.593 262.922 200.215 264.171 201.074 265.252H201.169Z" fill="#FFA398"/>
<path d="M204.712 359.903L214.717 385.201L226.541 417.661C226.541 417.85 226.693 418.04 226.75 418.229L227.811 421.129L228.493 423.024L229.516 425.866C229.952 427.041 230.369 428.197 230.805 429.353C231.241 430.509 231.809 432.157 232.321 433.522L239.124 452.263L239.522 453.343C239.721 453.908 240.095 454.396 240.588 454.736C241.082 455.076 241.67 455.252 242.269 455.238C244.179 455.148 246.08 454.913 247.954 454.536C249.849 454.176 251.744 453.779 253.639 453.229C253.999 453.229 254.378 453.002 254.435 452.604C254.451 452.516 254.45 452.427 254.431 452.34C254.412 452.253 254.376 452.171 254.324 452.099C254.273 452.027 254.208 451.965 254.132 451.918C254.057 451.872 253.973 451.84 253.885 451.827C252.996 451.687 252.116 451.491 251.251 451.239C249.625 450.762 248.035 450.166 246.495 449.458C246.002 441.518 245.339 433.522 244.6 425.544C244.6 425.279 244.6 425.013 244.6 424.748C244.6 423.857 244.43 422.967 244.354 422.076L244.069 419.253C244.069 418.969 244.069 418.684 244.069 418.4C244.069 418.116 244.069 417.945 244.069 417.699C243.975 416.846 243.899 415.993 243.804 415.122C243.16 408.982 242.497 402.843 241.909 396.779C240.753 385.409 238.783 372.353 236.736 359.941L204.712 359.903Z" fill="#FFA398"/>
<path d="M188.586 318.841C190.386 323.446 192.698 329.358 195.237 335.896C195.137 327.933 194.542 319.984 193.456 312.095C193.007 308.955 191.754 305.985 189.817 303.473C188.461 305.774 187.645 308.353 187.432 311.015C187.218 313.678 187.613 316.354 188.586 318.841Z" fill="#E8928B"/>
<path d="M179.793 223.98C182.238 228.262 184.644 225.382 184.644 225.382C187.543 232.677 194.801 240.257 204.958 237.907C214.054 235.861 216.119 224.51 214.433 214.505C213.729 209.628 211.77 205.018 208.748 201.127C206.757 198.996 204.067 197.651 201.168 197.337C198.171 196.986 195.134 197.251 192.243 198.114C181.726 200.463 183.431 215.945 183.431 215.945C177.936 213.614 177.747 220.36 179.793 223.98Z" fill="#FFA398"/>
<path d="M127.948 317.589C127.948 317.589 115.365 318.536 125.655 319.939C125.655 319.939 111.651 331.782 124.272 324.051C124.272 324.051 112.485 336.709 126.034 325.529C126.034 325.529 116.881 337.77 128.175 326.571C128.175 326.571 121.827 338.585 131.055 326.173C140.833 313.06 137.782 313.648 137.782 313.648L127.948 317.589Z" fill="#FFA398"/>
<path d="M128.876 322.025C129.163 322.36 129.513 322.636 129.907 322.835C130.301 323.035 130.73 323.155 131.17 323.188C131.61 323.222 132.052 323.168 132.472 323.03C132.891 322.892 133.279 322.673 133.613 322.385C145.965 311.649 157.377 299.877 167.722 287.196C169.03 285.623 170.299 284.032 171.512 282.44C175.473 277.399 179.281 272.188 182.882 266.863V266.769C183.198 266.302 183.471 265.807 183.697 265.291C184.429 264.102 184.9 262.77 185.077 261.385C185.255 259.999 185.134 258.592 184.724 257.257C184.314 255.922 183.624 254.69 182.699 253.643C181.775 252.596 180.638 251.758 179.364 251.186C178.09 250.614 176.708 250.32 175.312 250.324C173.915 250.328 172.536 250.63 171.265 251.21C169.994 251.79 168.862 252.634 167.944 253.687C167.026 254.739 166.343 255.975 165.941 257.313C163.414 263.061 160.635 268.746 157.603 274.367C156.751 275.978 155.879 277.57 154.988 279.162C153.207 282.345 151.356 285.503 149.436 288.636C143.186 298.799 136.293 308.552 128.8 317.837C128.336 318.44 128.09 319.183 128.104 319.944C128.118 320.705 128.39 321.439 128.876 322.025Z" fill="#FFA398"/>
<path d="M160.901 307.547C160.921 307.753 160.959 307.955 161.015 308.154C161.41 309.815 162.082 311.397 163.005 312.834C163.232 313.232 163.497 313.63 163.744 314.028L164.577 315.241L166.226 317.666L167.893 320.13L168.746 321.361C169.068 321.759 169.39 322.176 169.769 322.612C170.613 323.551 171.532 324.42 172.517 325.208L173.37 325.871L174.298 326.554C174.943 327.008 175.701 327.463 176.534 327.956L183.072 331.746C187.591 334.332 192.902 335.171 197.998 334.102C203.094 333.033 207.62 330.131 210.719 325.947C211.306 325.143 211.85 324.308 212.349 323.446C212.86 322.612 213.334 321.778 213.865 320.945C215.968 317.572 218.394 314.161 219.189 310.655C219.611 308.927 219.752 307.141 219.606 305.368C219.586 304.997 219.528 304.629 219.436 304.269C219.11 302.756 218.506 301.317 217.655 300.024C217.389 299.589 217.067 299.134 216.764 298.698L215.779 297.372L213.884 294.719C212.624 293.187 211.678 291.423 211.098 289.527C210.885 288.678 210.783 287.805 210.795 286.93C210.795 286.059 210.795 285.206 210.795 284.334C210.95 282.571 211.241 280.823 211.667 279.104C212.102 277.361 212.728 275.599 213.353 273.799C213.978 271.998 214.642 270.236 215.248 268.455C215.835 266.669 216.273 264.837 216.555 262.978C216.832 261.256 216.921 259.509 216.821 257.767C216.843 255.907 216.243 254.093 215.115 252.613C214.444 251.696 213.639 250.885 212.728 250.207C212.176 249.793 211.601 249.413 211.003 249.07L210.53 248.823L209.961 248.52C209.911 248.527 209.86 248.527 209.809 248.52L208.748 248.084C198.722 244.539 187.72 244.959 177.994 249.259L176.629 249.884C175.328 250.515 174.063 251.217 172.839 251.988C172.46 252.234 172.176 252.462 171.854 252.689L171.001 253.39C170.49 253.845 170.035 254.281 169.618 254.717C168.879 255.478 168.242 256.331 167.723 257.256C166.874 258.698 166.472 260.36 166.567 262.031C166.641 265.183 167.236 268.302 168.329 271.259C168.86 272.775 169.447 274.31 169.959 275.845C170.52 277.358 170.97 278.909 171.304 280.488C171.304 280.848 171.437 281.208 171.494 281.568C171.551 281.928 171.608 282.402 171.645 282.837C171.731 283.618 171.769 284.402 171.759 285.187C171.749 285.973 171.692 286.758 171.589 287.537C171.514 288.342 171.329 289.132 171.039 289.887C170.252 291.645 169.132 293.234 167.742 294.567L165.449 296.86L164.293 298.016C163.952 298.395 163.592 298.774 163.27 299.153L162.815 299.702L160.92 303.833C160.732 305.064 160.726 306.315 160.901 307.547Z" fill="#FFA398"/>
<path d="M188.586 318.841C190.386 323.446 192.698 329.358 195.237 335.896C195.137 327.933 194.542 319.984 193.456 312.095C193.007 308.955 191.754 305.985 189.817 303.473C188.461 305.774 187.645 308.353 187.432 311.015C187.218 313.678 187.613 316.354 188.586 318.841Z" fill="#FFA398"/>
<path d="M214.356 214.505C213.653 209.628 211.694 205.018 208.672 201.127C206.681 198.996 203.991 197.651 201.092 197.337C199.974 197.716 199.197 198.796 198.951 200.956C198.287 208.46 209.259 212.913 214.356 214.505Z" fill="#E8928B"/>
<path d="M163.004 359.903L165.013 368.601C166.434 374.437 167.912 380.255 169.371 386.072C170.83 391.89 172.422 397.688 173.976 403.487L176.383 412.185L177.955 417.661L178.865 420.845L180.002 424.786C181.101 428.462 182.238 432.119 183.375 435.777L184.114 438.107L186.805 446.805C187.544 449.117 188.34 451.429 189.117 453.722C188.567 454.157 188.036 454.612 187.468 455.01C186.899 455.408 185.971 456.128 185.175 456.621C184.379 457.114 183.621 457.644 182.806 458.099C182.65 458.186 182.522 458.316 182.438 458.474C182.354 458.632 182.317 458.811 182.333 458.99C182.344 459.109 182.38 459.225 182.437 459.331C182.494 459.437 182.571 459.531 182.665 459.607C182.758 459.682 182.866 459.739 182.981 459.773C183.096 459.807 183.217 459.818 183.337 459.804H183.659C184.644 459.804 185.554 459.615 186.596 459.463L189.496 459.065C190.462 458.952 191.39 458.762 192.357 458.611C193.323 458.459 194.252 458.288 195.199 458.08C195.751 457.932 196.238 457.603 196.581 457.147C196.925 456.69 197.105 456.131 197.094 455.56V454.271L196.639 430.149L196.526 424.009L196.412 418.571V417.794L196.09 400.739C195.976 394.789 195.938 388.858 195.787 382.946C195.635 375.29 195.515 367.647 195.427 360.017L163.004 359.903Z" fill="#FFA398"/>
<path d="M180.002 424.786C181.101 428.462 182.238 432.119 183.375 435.777L196.639 430.092L196.526 423.952L180.002 424.786Z" fill="#E8928B"/>
<path d="M181.063 215.414L181.233 215.661C185.459 221.706 193.134 224.529 196.203 212.079C196.662 210.116 197.335 208.21 198.212 206.394C198.369 206.074 198.546 205.764 198.743 205.466C201.623 200.823 204.655 202.358 204.655 202.358V200.198C206.19 195.612 201.187 188.639 188.908 191.064C176.629 193.49 177.008 209.18 181.063 215.414Z" fill="#2F3F5C"/>
<path d="M201.718 198.077C202.753 202.002 204.923 205.534 207.957 208.231C210.991 210.928 214.753 212.669 218.772 213.236C223.074 213.975 212.197 196.731 212.197 196.731H201.718" fill="#2F3F5C"/>
<path d="M210.833 277.512L216.48 284.694L220.269 280.089L221.027 279.161L226.485 272.51L224.211 267.924L210.833 277.512Z" fill="#E8928B"/>
<path d="M225.594 423.877L225.916 425.924C227.034 425.924 228.247 425.924 229.517 425.924C229.952 427.099 230.369 428.255 230.805 429.411L244.449 424.787C244.449 423.896 244.278 423.006 244.202 422.115C244.979 421.717 245.737 421.281 246.514 420.808L246.154 417.738L243.842 418.439L228.493 423.082L225.594 423.877Z" fill="#E8928B"/>
<path d="M214.604 270.083C215.172 270.197 215.741 270.292 216.309 270.367C221.13 270.959 225.993 269.677 229.896 266.786C246.495 255 236.718 231.919 227.792 226.272C226.112 225.328 224.651 224.036 223.51 222.482C222.809 224.036 222.657 227.011 224.685 232.772C228.892 244.748 242.365 252.043 222.07 263.565C216.139 266.957 214.282 268.946 214.604 270.083Z" fill="#27374F"/>
<path d="M210.435 247.837C210.435 247.837 217.503 250.471 218.753 254.053C220.004 257.634 227.015 270.406 227.015 270.406L213.107 283.349L206.758 266.294L210.435 247.837Z" fill="#14619D"/>
<path d="M155.008 279.047L167.78 287.195C169.087 285.622 170.357 284.03 171.57 282.439L157.585 274.252C156.751 275.863 155.879 277.455 155.008 279.047Z" fill="#E8928B"/>
<path d="M156.258 332.9V333.108C156.258 347.927 166.472 406.594 168.689 419.252C168.689 419.707 168.841 420.105 168.898 420.427L169.106 421.659C176.113 424.867 183.788 426.342 191.485 425.96C195.787 425.725 200.005 424.677 203.916 422.872L203.48 418.039L196.696 342.583L217.029 417.585L218.431 422.758C220.794 422.967 223.166 423.049 225.537 423.004C230.142 422.961 234.732 422.46 239.238 421.507C243.38 420.647 247.346 419.09 250.967 416.902V416.637C250.854 416.069 250.569 414.742 250.115 412.601C246.893 397.574 235.751 346.6 226.598 318.593C225.234 314.424 223.927 310.786 222.676 307.83C222.013 306.216 221.26 304.641 220.421 303.111C218.122 299.291 214.435 296.508 210.131 295.342C193.077 289.904 164.994 300.061 164.994 300.061C164.994 300.061 164.426 300.894 163.592 302.467C160.757 307.951 158.733 313.817 157.585 319.882C156.735 324.17 156.291 328.528 156.258 332.9Z" fill="url(#paint35_linear_3894_6556)"/>
<path opacity="0.08" d="M196.696 342.585L217.029 417.586L218.431 422.759C220.793 422.969 223.166 423.051 225.537 423.006C230.142 422.963 234.732 422.461 239.237 421.509L250.91 416.639C250.796 416.07 250.512 414.744 250.057 412.603C246.836 397.576 235.694 346.602 226.541 318.595L196.696 342.585Z" fill="#27374F"/>
<path d="M167.799 418.97L168.083 420.202L169.087 424.788C177.52 429.127 187.771 428.426 195.18 426.948C198.571 426.3 201.899 425.361 205.129 424.143L204.693 417.682L203.48 418.099C192.209 421.678 180.167 422.065 168.689 419.217L167.799 418.97Z" fill="#188AA5"/>
<path d="M216.043 417.395L217.938 424.975C220.629 425.553 223.372 425.858 226.124 425.885C227.261 425.885 228.512 425.885 229.8 425.885C234.982 425.641 240.061 424.352 244.732 422.095C245.528 421.697 246.305 421.261 247.082 420.787C248.573 419.883 249.987 418.856 251.308 417.718L251.08 412.033C248.819 413.252 246.454 414.266 244.012 415.065C238.518 416.965 232.768 418.026 226.958 418.21C223.301 418.322 219.642 418.049 216.043 417.395Z" fill="#188AA5"/>
<path opacity="0.12" d="M157.509 319.845C175.435 325.113 210.34 312.587 222.6 307.793C221.94 306.178 221.187 304.603 220.345 303.075C218.05 299.251 214.362 296.466 210.055 295.306L163.516 302.431C160.69 307.918 158.667 313.783 157.509 319.845Z" fill="#27374F"/>
<path d="M239.37 452.907L239.522 453.324C239.721 453.889 240.095 454.377 240.588 454.717C241.082 455.057 241.67 455.233 242.269 455.219C244.179 455.129 246.08 454.894 247.954 454.518C249.849 454.158 251.744 453.76 253.639 453.21C253.999 453.21 254.378 452.983 254.435 452.585C254.451 452.498 254.45 452.408 254.431 452.321C254.412 452.235 254.376 452.153 254.324 452.08C254.273 452.008 254.208 451.946 254.132 451.899C254.057 451.853 253.973 451.822 253.885 451.808C252.996 451.668 252.116 451.472 251.251 451.22L249.356 450.576C250.152 451.997 249.66 453.873 239.37 452.907Z" fill="url(#paint36_linear_3894_6556)"/>
<path d="M161.091 303.454C160.049 305.728 159.632 306.751 159.632 306.751L161.129 307.225C193.343 317.401 213.164 307.983 219.682 303.909C220.512 303.403 221.309 302.846 222.07 302.241C222.07 302.241 212.216 283.69 214.926 279.18C217.508 274.047 218.18 268.163 216.821 262.58C215.438 257.619 213.412 252.861 210.795 248.425C210.587 248.065 210.454 247.875 210.454 247.875L210.075 248.065C193.362 256.516 181.973 251.135 178.259 248.785C177.792 248.47 177.262 248.263 176.705 248.179C176.705 248.179 169.447 250.074 166.624 255.266C163.801 260.458 155.254 274.613 155.254 274.613L165.051 281.946L169.656 285.414L169.144 286.456C166.491 291.952 164.483 296.177 163.024 299.323C162.228 300.991 161.602 302.374 161.091 303.454Z" fill="url(#paint37_linear_3894_6556)"/>
<path d="M161.091 303.454C160.049 305.728 159.632 306.751 159.632 306.751L161.129 307.225C193.343 317.401 213.164 307.983 219.682 303.909C220.512 303.403 221.309 302.846 222.07 302.241C222.07 302.241 212.216 283.69 214.926 279.18C217.508 274.047 218.18 268.163 216.821 262.58C215.438 257.619 213.412 252.861 210.795 248.425C210.587 248.065 210.454 247.875 210.454 247.875L210.075 248.065C193.362 256.516 181.973 251.135 178.259 248.785C177.792 248.47 177.262 248.263 176.705 248.179C176.705 248.179 169.447 250.074 166.624 255.266C163.801 260.458 155.254 274.613 155.254 274.613L165.051 281.946L169.656 285.414L169.144 286.456C166.491 291.952 164.483 296.177 163.024 299.323C162.228 300.991 161.602 302.374 161.091 303.454Z" fill="url(#paint38_linear_3894_6556)"/>
<path d="M239.37 452.907L239.522 453.324C239.721 453.889 240.095 454.377 240.588 454.717C241.082 455.057 241.67 455.233 242.269 455.219C244.179 455.129 246.08 454.894 247.954 454.518C249.849 454.158 251.744 453.76 253.639 453.21C253.999 453.21 254.378 452.983 254.435 452.585C254.451 452.498 254.45 452.408 254.431 452.321C254.412 452.235 254.376 452.153 254.324 452.08C254.273 452.008 254.208 451.946 254.132 451.899C254.057 451.853 253.973 451.822 253.885 451.808C252.996 451.668 252.116 451.472 251.251 451.22L249.356 450.576C250.152 451.997 249.66 453.873 239.37 452.907Z" fill="#222F42"/>
<path d="M182.333 458.895C182.344 459.015 182.38 459.131 182.437 459.237C182.494 459.343 182.571 459.437 182.665 459.513C182.758 459.588 182.866 459.645 182.981 459.679C183.096 459.713 183.217 459.723 183.337 459.71H183.659C184.644 459.71 185.554 459.521 186.596 459.369L189.496 458.971C190.462 458.858 191.39 458.668 192.357 458.516C193.323 458.365 194.252 458.194 195.199 457.986C195.751 457.838 196.238 457.509 196.581 457.052C196.925 456.596 197.105 456.037 197.094 455.466V454.84C189.42 458.346 186.786 457.19 185.895 456.034C185.63 456.224 185.365 456.413 185.099 456.565C184.322 457.095 183.545 457.588 182.731 458.043C182.594 458.137 182.486 458.265 182.416 458.415C182.346 458.565 182.317 458.731 182.333 458.895Z" fill="url(#paint39_linear_3894_6556)"/>
<path d="M182.333 458.895C182.344 459.015 182.38 459.131 182.437 459.237C182.494 459.343 182.571 459.437 182.665 459.513C182.758 459.588 182.866 459.645 182.981 459.679C183.096 459.713 183.217 459.723 183.337 459.71H183.659C184.644 459.71 185.554 459.521 186.596 459.369L189.496 458.971C190.462 458.858 191.39 458.668 192.357 458.516C193.323 458.365 194.252 458.194 195.199 457.986C195.751 457.838 196.238 457.509 196.581 457.052C196.925 456.596 197.105 456.037 197.094 455.466V454.84C189.42 458.346 186.786 457.19 185.895 456.034C185.63 456.224 185.365 456.413 185.099 456.565C184.322 457.095 183.545 457.588 182.731 458.043C182.594 458.137 182.486 458.265 182.416 458.415C182.346 458.565 182.317 458.731 182.333 458.895Z" fill="#222F42"/>
<path opacity="0.1" d="M169.655 285.396L169.144 286.439C169.37 286.122 169.543 285.77 169.655 285.396Z" fill="#27374F"/>
<path opacity="0.1" d="M165.05 281.946L169.655 285.414C171.777 279.388 174.43 267.355 174.43 267.355L165.05 281.946Z" fill="#27374F"/>
<path d="M181.063 215.415L181.234 215.661C185.459 221.706 193.134 224.53 196.204 212.08C196.662 210.117 197.336 208.21 198.212 206.395C195.995 210.166 187.961 222.464 181.063 215.415Z" fill="#27374F"/>
<path d="M317.031 172.604C317.031 168.47 320.383 165.118 324.518 165.118H437.294C441.429 165.118 444.781 168.47 444.781 172.604V430.035H317.031V172.604Z" fill="url(#paint40_linear_3894_6556)"/>
<rect opacity="0.24" x="317.031" y="165.117" width="127.749" height="127.266" rx="7.48624" fill="url(#paint41_linear_3894_6556)"/>
<rect x="325" y="173" width="112.294" height="111.811" rx="7.48624" fill="url(#paint42_linear_3894_6556)"/>
<rect x="331" y="179" width="99.2531" height="98.7701" rx="5.21322" fill="url(#paint43_linear_3894_6556)"/>
<mask id="mask0_3894_6556" style="mask-type:alpha" maskUnits="userSpaceOnUse" x="331" y="179" width="100" height="100">
<path d="M331 179H419.472C425.289 179 430.004 183.716 430.004 189.533V278.005H331V179Z" fill="url(#paint44_linear_3894_6556)"/>
</mask>
<g mask="url(#mask0_3894_6556)">
<path d="M385.673 225.896C386.24 233.708 386.744 241.583 387.311 249.395C382.462 250.151 377.612 250.907 372.763 251.664C371.504 244.796 370.244 237.992 368.985 231.125L385.673 225.896Z" fill="#FFA398"/>
<path d="M371.63 244.67C371.063 240.071 373.078 235.598 376.794 233.267C380.95 230.684 385.422 231.944 386.114 232.133C386.303 234.527 386.429 236.984 386.618 239.378C386.051 240.575 384.603 243.347 381.391 245.3C377.361 247.82 373.33 247.442 372.134 247.253C371.882 246.686 371.756 245.741 371.63 244.67Z" fill="#E8928B"/>
<path d="M391.278 221.927C390.396 220.793 389.263 221.297 388.255 222.179C389.578 216.76 389.83 213.232 388.381 210.145C385.925 204.853 380.824 202.711 379.691 202.27C374.401 200.191 369.363 201.451 366.025 202.963C363.569 204.097 361.743 206.302 361.176 208.948C359.161 218.461 354.689 243.347 363.191 244.041C369.426 244.482 376.227 245.931 380.887 242.402C383.091 240.764 384.036 237.614 385.61 232.07C391.341 233.456 393.23 224.573 391.278 221.927Z" fill="#FFA398"/>
<path d="M411.933 260.548C414.83 266.534 428.622 295.2 431.204 300.492C433.66 305.658 440.02 319.267 442.539 324.559C444.24 328.402 439.076 331.363 436.62 328.024C430.763 319.834 421.883 307.233 415.964 299.232L395.119 270.566C391.907 266.156 392.915 259.981 397.26 256.831C402.172 253.24 409.351 255.067 411.933 260.548Z" fill="#FFA398"/>
<path d="M387.815 248.074C390.523 248.956 392.538 249.901 394.364 250.846C394.805 251.098 395.246 251.35 395.687 251.539L396.883 252.295C397.261 252.547 397.639 252.799 397.954 253.051L398.521 253.429L399.024 253.807C401.669 255.823 403.37 257.902 404.503 259.981C405.07 261.052 405.448 262.123 405.763 263.194C406.078 264.266 406.329 265.337 406.581 266.408C407.022 268.55 407.274 270.755 407.4 272.897C407.463 275.039 407.337 277.244 407.085 279.386C406.833 281.528 406.392 283.733 406.015 285.875C405.637 288.017 405.196 290.223 404.818 292.365C404.44 294.507 404.188 296.649 403.999 298.854C403.622 303.138 403.747 307.485 404.125 311.832L404.755 318.385C404.881 319.456 404.944 320.59 405.07 321.661C405.133 322.732 405.196 323.866 405.196 324.937C405.322 329.284 404.629 333.568 403.181 337.789C402.803 338.86 402.425 339.869 401.984 340.94C401.543 342.011 400.725 343.019 399.465 343.964C398.143 344.909 396.442 345.791 394.049 346.61C393.797 346.736 393.419 346.799 393.105 346.925L392.16 347.24C391.467 347.429 390.775 347.618 389.956 347.807C388.318 348.185 386.618 348.5 384.414 348.752L380.95 349.193C378.494 349.508 376.164 348.878 374.275 347.618C372.449 346.358 371.126 345.224 370.056 344.09C368.985 342.956 368.229 341.822 367.6 340.751C366.34 338.608 366.151 336.529 365.647 334.45C365.144 332.371 364.703 330.292 364.325 328.276C364.136 327.268 364.01 326.26 363.821 325.189C363.632 324.181 363.443 323.173 363.38 322.102C362.31 313.974 362.058 305.973 361.113 297.909C360.609 293.877 359.728 289.908 358.972 285.938C358.594 283.922 358.279 281.969 358.027 279.953C357.775 278 357.712 275.984 357.775 274.031C357.901 272.015 358.027 270.062 358.405 268.046C358.531 267.542 358.594 267.038 358.657 266.534L359.035 265.022C359.224 264.014 359.539 263.005 360.043 261.997C360.987 259.981 362.562 257.902 364.955 255.76L365.395 255.382L365.899 255.004C366.214 254.752 366.529 254.437 366.907 254.185L368.04 253.366C368.418 253.114 368.859 252.799 369.237 252.547C370.937 251.413 372.827 250.279 375.409 249.082L375.534 249.019C379.439 246.94 383.91 246.814 387.815 248.074Z" fill="#FFA398"/>
<path d="M386.366 224.636C388.003 221.549 390.018 221.297 390.018 221.297C390.018 221.297 392.097 207.562 390.333 202.711C388.57 197.86 373.204 192.252 373.204 192.252L375.723 197.041C371.504 193.954 364.954 192.946 364.954 192.946C365.962 196.159 369.236 197.167 369.236 197.167C368.865 197.201 369 197.5 368.5 197.5C368 197.5 367.492 197.099 367.186 197.041C362.728 196.187 357.838 192 357.838 192C356.452 198.364 360.861 202.144 360.861 202.144L355.445 202.207C360.861 209.83 369.362 208.318 369.362 208.318L365.458 210.019C374.212 212.224 379.879 209.641 379.879 209.641C379.816 215.374 383.595 214.555 383.784 219.974C383.721 219.848 383.406 230.117 386.366 224.636Z" fill="#2F3F5C"/>
<path d="M369 198C369 198 376.035 199.414 379 200.325C381.518 201.099 384.347 202.232 386.194 203.775C391.305 208.043 389.698 223.892 389.698 223.892H386.895C386.895 223.892 388.124 210.006 384.092 205.527C382.728 204.012 379.502 201.543 376 200C373.398 198.854 369 198 369 198Z" fill="#14619D"/>
<ellipse cx="387.533" cy="224.704" rx="3.85416" ry="5.25568" fill="#14619D"/>
<path d="M387.533 229.259C387.533 229.259 387.597 234.928 385.143 236.155C383.741 236.856 382.849 237.124 380.938 237.557C378.913 238.015 374.281 238.257 374.281 238.257" stroke="#14619D" stroke-width="0.700757" stroke-linecap="round" stroke-linejoin="round"/>
<circle cx="373.931" cy="238.258" r="1.40151" fill="#14619D"/>
<path d="M365.017 283.228L342.283 314.54L341.59 315.485C339.701 318.068 336.111 318.635 333.466 316.745C333.34 316.682 333.277 316.556 333.151 316.493L308.087 295.513C306.639 294.316 306.45 292.111 307.646 290.662C308.717 289.339 310.606 289.087 311.992 289.906L340.394 306.098L331.325 308.051L348.139 273.21C350.533 268.296 356.389 266.28 361.301 268.611C366.213 271.005 368.229 276.864 365.899 281.779C365.647 282.22 365.332 282.787 365.017 283.228Z" fill="#FFA398"/>
<path d="M430.124 288.678L419.593 294.963L414.328 298.106L407.907 288.87L407.779 309.265L411.118 326.133L360.586 329.533L359.558 292.462L351.083 306.251L334.646 295.22L348.9 268.282L352.367 261.74C352.367 261.74 357.247 253.467 368.098 250.132C368.098 250.132 381.004 259.624 392.883 247.694C392.883 247.694 407.972 250.773 410.219 253.723C412.338 256.738 430.124 288.678 430.124 288.678Z" fill="url(#paint45_linear_3894_6556)"/>
<path opacity="0.2" d="M359.652 292.765L351.187 306.8L334.646 295.572L348.926 268.154L359.652 292.765Z" fill="#27374F"/>
</g>
<rect x="331.28" y="304.7" width="99.2531" height="99.9775" rx="5.7958" fill="url(#paint46_linear_3894_6556)"/>
<rect x="338.041" y="356.862" width="85.7295" height="39.8461" rx="4.82983" fill="url(#paint47_linear_3894_6556)"/>
<rect x="338.041" y="339.474" width="40.8121" height="11.8331" rx="1.69044" fill="url(#paint48_linear_3894_6556)"/>
<rect x="340.939" y="344.304" width="35.0163" height="2.17342" rx="1.08671" fill="url(#paint49_linear_3894_6556)"/>
<rect x="382.959" y="310.496" width="40.8121" height="40.8121" rx="1.69044" fill="url(#paint50_linear_3894_6556)"/>
<rect x="385.857" y="313.394" width="35.0163" height="35.0163" rx="1.69044" fill="url(#paint51_linear_3894_6556)"/>
<rect x="388.272" y="344.305" width="30.1865" height="2.17342" rx="1.08671" fill="url(#paint52_linear_3894_6556)"/>
<path opacity="0.07" d="M323.779 431L452.5 432.5L473.748 466.465H308L323.779 431Z" fill="#27374F" fill-opacity="0.7"/>
<path d="M317.031 430.035H444.78L460.559 455.874H301.252L317.031 430.035Z" fill="#C4C4C4"/>
<path d="M317.031 430.035H444.78L460.559 455.874H301.252L317.031 430.035Z" fill="url(#paint53_linear_3894_6556)"/>
<path d="M301.26 455.874H460.563V463.36H301.26V455.874Z" fill="#C4C4C4"/>
<path d="M301.26 455.874H460.563V463.36H301.26V455.874Z" fill="url(#paint54_linear_3894_6556)"/>
<defs>
<filter id="filter0_d_3894_6556" x="410.159" y="86.5722" width="90.6827" height="90.6827" filterUnits="userSpaceOnUse" color-interpolation-filters="sRGB">
<feFlood flood-opacity="0" result="BackgroundImageFix"/>
<feColorMatrix in="SourceAlpha" type="matrix" values="0 0 0 0 0 0 0 0 0 0 0 0 0 0 0 0 0 0 127 0" result="hardAlpha"/>
<feOffset/>
<feGaussianBlur stdDeviation="9.92068"/>
<feComposite in2="hardAlpha" operator="out"/>
<feColorMatrix type="matrix" values="0 0 0 0 0.0196078 0 0 0 0 0.235294 0 0 0 0 0.396078 0 0 0 0.07 0"/>
<feBlend mode="normal" in2="BackgroundImageFix" result="effect1_dropShadow_3894_6556"/>
<feBlend mode="normal" in="SourceGraphic" in2="effect1_dropShadow_3894_6556" result="shape"/>
</filter>
<filter id="filter1_d_3894_6556" x="109.934" y="124.934" width="83.4115" height="83.4115" filterUnits="userSpaceOnUse" color-interpolation-filters="sRGB">
<feFlood flood-opacity="0" result="BackgroundImageFix"/>
<feColorMatrix in="SourceAlpha" type="matrix" values="0 0 0 0 0 0 0 0 0 0 0 0 0 0 0 0 0 0 127 0" result="hardAlpha"/>
<feOffset/>
<feGaussianBlur stdDeviation="13.033"/>
<feComposite in2="hardAlpha" operator="out"/>
<feColorMatrix type="matrix" values="0 0 0 0 0.0196078 0 0 0 0 0.235294 0 0 0 0 0.396078 0 0 0 0.07 0"/>
<feBlend mode="normal" in2="BackgroundImageFix" result="effect1_dropShadow_3894_6556"/>
<feBlend mode="normal" in="SourceGraphic" in2="effect1_dropShadow_3894_6556" result="shape"/>
</filter>
<filter id="filter2_d_3894_6556" x="238.303" y="130.274" width="82.3155" height="82.3152" filterUnits="userSpaceOnUse" color-interpolation-filters="sRGB">
<feFlood flood-opacity="0" result="BackgroundImageFix"/>
<feColorMatrix in="SourceAlpha" type="matrix" values="0 0 0 0 0 0 0 0 0 0 0 0 0 0 0 0 0 0 127 0" result="hardAlpha"/>
<feOffset/>
<feGaussianBlur stdDeviation="8.79438"/>
<feComposite in2="hardAlpha" operator="out"/>
<feColorMatrix type="matrix" values="0 0 0 0 0.0196078 0 0 0 0 0.235294 0 0 0 0 0.396078 0 0 0 0.07 0"/>
<feBlend mode="normal" in2="BackgroundImageFix" result="effect1_dropShadow_3894_6556"/>
<feBlend mode="normal" in="SourceGraphic" in2="effect1_dropShadow_3894_6556" result="shape"/>
</filter>
<filter id="filter3_d_3894_6556" x="261.562" y="0.561871" width="156.876" height="156.876" filterUnits="userSpaceOnUse" color-interpolation-filters="sRGB">
<feFlood flood-opacity="0" result="BackgroundImageFix"/>
<feColorMatrix in="SourceAlpha" type="matrix" values="0 0 0 0 0 0 0 0 0 0 0 0 0 0 0 0 0 0 127 0" result="hardAlpha"/>
<feOffset/>
<feGaussianBlur stdDeviation="15.2191"/>
<feComposite in2="hardAlpha" operator="out"/>
<feColorMatrix type="matrix" values="0 0 0 0 0.0196078 0 0 0 0 0.235294 0 0 0 0 0.396078 0 0 0 0.07 0"/>
<feBlend mode="normal" in2="BackgroundImageFix" result="effect1_dropShadow_3894_6556"/>
<feBlend mode="normal" in="SourceGraphic" in2="effect1_dropShadow_3894_6556" result="shape"/>
</filter>
<filter id="filter4_d_3894_6556" x="148.374" y="34.2085" width="142.681" height="142.681" filterUnits="userSpaceOnUse" color-interpolation-filters="sRGB">
<feFlood flood-opacity="0" result="BackgroundImageFix"/>
<feColorMatrix in="SourceAlpha" type="matrix" values="0 0 0 0 0 0 0 0 0 0 0 0 0 0 0 0 0 0 127 0" result="hardAlpha"/>
<feOffset/>
<feGaussianBlur stdDeviation="14.8694"/>
<feComposite in2="hardAlpha" operator="out"/>
<feColorMatrix type="matrix" values="0 0 0 0 0.0196078 0 0 0 0 0.235294 0 0 0 0 0.396078 0 0 0 0.07 0"/>
<feBlend mode="normal" in2="BackgroundImageFix" result="effect1_dropShadow_3894_6556"/>
<feBlend mode="normal" in="SourceGraphic" in2="effect1_dropShadow_3894_6556" result="shape"/>
</filter>
<linearGradient id="paint0_linear_3894_6556" x1="129.5" y1="97.5" x2="519" y2="440.5" gradientUnits="userSpaceOnUse">
<stop stop-color="#E4F1FF"/>
<stop offset="1" stop-color="#B6E1F9"/>
</linearGradient>
<linearGradient id="paint1_linear_3894_6556" x1="1.0206" y1="461.811" x2="577.651" y2="461.811" gradientUnits="userSpaceOnUse">
<stop offset="0.0111732" stop-color="#E7F1FB"/>
<stop offset="1" stop-color="#C6E0FB"/>
</linearGradient>
<linearGradient id="paint2_linear_3894_6556" x1="437.801" y1="102.232" x2="503.924" y2="123.426" gradientUnits="userSpaceOnUse">
<stop stop-color="#F7FBFF"/>
<stop offset="1" stop-color="#D8EFFF"/>
</linearGradient>
<linearGradient id="paint3_linear_3894_6556" x1="467.245" y1="117.9" x2="457.922" y2="93.7169" gradientUnits="userSpaceOnUse">
<stop stop-color="#B6E0FF"/>
<stop offset="1" stop-color="#D1EBFF"/>
</linearGradient>
<linearGradient id="paint4_linear_3894_6556" x1="442.454" y1="124.926" x2="471.733" y2="124.926" gradientUnits="userSpaceOnUse">
<stop offset="7e-08" stop-color="#42BEDE"/>
<stop offset="0.916667" stop-color="#46B8D3"/>
</linearGradient>
<linearGradient id="paint5_linear_3894_6556" x1="470.37" y1="136.577" x2="459.89" y2="106.212" gradientUnits="userSpaceOnUse">
<stop stop-color="#B6E0FF"/>
<stop offset="1" stop-color="#D1EBFF"/>
</linearGradient>
<linearGradient id="paint6_linear_3894_6556" x1="461.704" y1="140.478" x2="462.858" y2="122.058" gradientUnits="userSpaceOnUse">
<stop stop-color="#7DD5E6"/>
<stop offset="1" stop-color="#C3E6FF"/>
</linearGradient>
<linearGradient id="paint7_linear_3894_6556" x1="139.225" y1="146.156" x2="184.189" y2="160.568" gradientUnits="userSpaceOnUse">
<stop stop-color="#F7FBFF"/>
<stop offset="1" stop-color="#D8EFFF"/>
</linearGradient>
<linearGradient id="paint8_linear_3894_6556" x1="251.741" y1="140.959" x2="315.637" y2="161.439" gradientUnits="userSpaceOnUse">
<stop stop-color="#F7FBFF"/>
<stop offset="1" stop-color="#D8EFFF"/>
</linearGradient>
<linearGradient id="paint9_linear_3894_6556" x1="288.682" y1="325.12" x2="303.404" y2="330.293" gradientUnits="userSpaceOnUse">
<stop stop-color="#34ADCC"/>
<stop offset="1" stop-color="#188AA5"/>
</linearGradient>
<linearGradient id="paint10_linear_3894_6556" x1="1553.42" y1="2486.53" x2="1828.19" y2="2486.53" gradientUnits="userSpaceOnUse">
<stop stop-color="#34ADCC"/>
<stop offset="1" stop-color="#188AA5"/>
</linearGradient>
<linearGradient id="paint11_linear_3894_6556" x1="835.499" y1="2331.69" x2="1068.26" y2="2331.69" gradientUnits="userSpaceOnUse">
<stop stop-color="#34ADCC"/>
<stop offset="1" stop-color="#188AA5"/>
</linearGradient>
<linearGradient id="paint12_linear_3894_6556" x1="2717.46" y1="5316.15" x2="3799.13" y2="5316.15" gradientUnits="userSpaceOnUse">
<stop stop-color="#34ADCC"/>
<stop offset="1" stop-color="#188AA5"/>
</linearGradient>
<linearGradient id="paint13_linear_3894_6556" x1="1227.8" y1="5060.58" x2="1765.12" y2="5060.58" gradientUnits="userSpaceOnUse">
<stop stop-color="#34ADCC"/>
<stop offset="1" stop-color="#188AA5"/>
</linearGradient>
<linearGradient id="paint14_linear_3894_6556" x1="279.839" y1="431.119" x2="310.578" y2="431.119" gradientUnits="userSpaceOnUse">
<stop stop-color="#0D5085"/>
<stop offset="0.74" stop-color="#074473"/>
<stop offset="1" stop-color="#043F6B"/>
</linearGradient>
<linearGradient id="paint15_linear_3894_6556" x1="281.278" y1="431.119" x2="310.577" y2="431.119" gradientUnits="userSpaceOnUse">
<stop stop-color="#0D5085"/>
<stop offset="0.52" stop-color="#094573"/>
<stop offset="1" stop-color="#04385E"/>
</linearGradient>
<linearGradient id="paint16_linear_3894_6556" x1="277.132" y1="414.84" x2="313.294" y2="414.84" gradientUnits="userSpaceOnUse">
<stop stop-color="#0E5A94"/>
<stop offset="0.69" stop-color="#074E82"/>
<stop offset="1" stop-color="#044778"/>
</linearGradient>
<linearGradient id="paint17_linear_3894_6556" x1="1995.5" y1="1200.29" x2="3256.16" y2="1200.29" gradientUnits="userSpaceOnUse">
<stop stop-color="#0D5085"/>
<stop offset="0.74" stop-color="#074473"/>
<stop offset="1" stop-color="#043F6B"/>
</linearGradient>
<linearGradient id="paint18_linear_3894_6556" x1="291.35" y1="19.2219" x2="414.339" y2="58.6429" gradientUnits="userSpaceOnUse">
<stop stop-color="#F7FBFF"/>
<stop offset="1" stop-color="#D8EFFF"/>
</linearGradient>
<linearGradient id="paint19_linear_3894_6556" x1="309.45" y1="73.7212" x2="420.651" y2="73.7212" gradientUnits="userSpaceOnUse">
<stop offset="7e-08" stop-color="#42BEDE"/>
<stop offset="0.916667" stop-color="#46B8D3"/>
</linearGradient>
<linearGradient id="paint20_linear_3894_6556" x1="409.646" y1="105.113" x2="392.269" y2="26.3995" gradientUnits="userSpaceOnUse">
<stop stop-color="#B6E0FF"/>
<stop offset="0.4032" stop-color="#D1EBFF"/>
<stop offset="1" stop-color="white"/>
</linearGradient>
<linearGradient id="paint21_linear_3894_6556" x1="337.632" y1="118.254" x2="343.388" y2="60.5264" gradientUnits="userSpaceOnUse">
<stop stop-color="#7DD5E6"/>
<stop offset="1" stop-color="#C3E6FF"/>
</linearGradient>
<linearGradient id="paint22_linear_3894_6556" x1="330.229" y1="77.0272" x2="414.61" y2="77.0272" gradientUnits="userSpaceOnUse">
<stop offset="7e-08" stop-color="#42BEDE"/>
<stop offset="0.916667" stop-color="#46B8D3"/>
</linearGradient>
<linearGradient id="paint23_linear_3894_6556" x1="352.676" y1="51.4546" x2="403.923" y2="51.4546" gradientUnits="userSpaceOnUse">
<stop offset="7e-08" stop-color="#42BEDE"/>
<stop offset="0.916667" stop-color="#46B8D3"/>
</linearGradient>
<linearGradient id="paint24_linear_3894_6556" x1="174.77" y1="55.5689" x2="276.46" y2="88.163" gradientUnits="userSpaceOnUse">
<stop stop-color="#F7FBFF"/>
<stop offset="1" stop-color="#D8EFFF"/>
</linearGradient>
<linearGradient id="paint25_linear_3894_6556" x1="198.574" y1="84.7219" x2="250.067" y2="84.7219" gradientUnits="userSpaceOnUse">
<stop offset="7e-08" stop-color="#42BEDE"/>
<stop offset="0.916667" stop-color="#46B8D3"/>
</linearGradient>
<linearGradient id="paint26_linear_3894_6556" x1="245.969" y1="122.453" x2="203.113" y2="48.2567" gradientUnits="userSpaceOnUse">
<stop stop-color="#B6E0FF"/>
<stop offset="0.4032" stop-color="#D1EBFF"/>
<stop offset="1" stop-color="white"/>
</linearGradient>
<linearGradient id="paint27_linear_3894_6556" x1="218.815" y1="138" x2="208.29" y2="70.5034" gradientUnits="userSpaceOnUse">
<stop stop-color="#7DD5E6"/>
<stop offset="1" stop-color="#C3E6FF"/>
</linearGradient>
<linearGradient id="paint28_linear_3894_6556" x1="206.111" y1="69.2915" x2="241.824" y2="69.2915" gradientUnits="userSpaceOnUse">
<stop offset="7e-08" stop-color="#42BEDE"/>
<stop offset="0.916667" stop-color="#46B8D3"/>
</linearGradient>
<linearGradient id="paint29_linear_3894_6556" x1="206.111" y1="77.5991" x2="241.824" y2="77.5991" gradientUnits="userSpaceOnUse">
<stop offset="7e-08" stop-color="#42BEDE"/>
<stop offset="0.916667" stop-color="#46B8D3"/>
</linearGradient>
<linearGradient id="paint30_linear_3894_6556" x1="206.116" y1="85.9067" x2="229.37" y2="85.9067" gradientUnits="userSpaceOnUse">
<stop offset="7e-08" stop-color="#42BEDE"/>
<stop offset="0.916667" stop-color="#46B8D3"/>
</linearGradient>
<linearGradient id="paint31_linear_3894_6556" x1="234.367" y1="85.9067" x2="241.011" y2="85.9067" gradientUnits="userSpaceOnUse">
<stop offset="7e-08" stop-color="#42BEDE"/>
<stop offset="0.916667" stop-color="#46B8D3"/>
</linearGradient>
<linearGradient id="paint32_linear_3894_6556" x1="244.704" y1="89.2558" x2="253.655" y2="89.2558" gradientUnits="userSpaceOnUse">
<stop offset="7e-08" stop-color="#83D6EB"/>
<stop offset="1" stop-color="#5DC1D9"/>
</linearGradient>
<linearGradient id="paint33_linear_3894_6556" x1="244.709" y1="89.1857" x2="253.665" y2="89.1857" gradientUnits="userSpaceOnUse">
<stop stop-color="#63D0E6"/>
<stop offset="1" stop-color="#87D6E6"/>
</linearGradient>
<linearGradient id="paint34_linear_3894_6556" x1="240.497" y1="55.3768" x2="255.24" y2="55.3768" gradientUnits="userSpaceOnUse">
<stop offset="7e-08" stop-color="#42BEDE"/>
<stop offset="0.916667" stop-color="#1C8FAA"/>
</linearGradient>
<linearGradient id="paint35_linear_3894_6556" x1="250.948" y1="359.922" x2="156.258" y2="359.922" gradientUnits="userSpaceOnUse">
<stop stop-color="#34ADCC"/>
<stop offset="1" stop-color="#188AA5"/>
</linearGradient>
<linearGradient id="paint36_linear_3894_6556" x1="254.378" y1="452.888" x2="239.37" y2="452.888" gradientUnits="userSpaceOnUse">
<stop stop-color="#106DB4"/>
<stop offset="1" stop-color="#0F5F9C"/>
</linearGradient>
<linearGradient id="paint37_linear_3894_6556" x1="-11845.5" y1="6184.63" x2="-14199.4" y2="6184.63" gradientUnits="userSpaceOnUse">
<stop stop-color="#DE3E53"/>
<stop offset="1" stop-color="#DB5163"/>
</linearGradient>
<linearGradient id="paint38_linear_3894_6556" x1="222.084" y1="279.84" x2="155.25" y2="279.84" gradientUnits="userSpaceOnUse">
<stop stop-color="#106DB4"/>
<stop offset="1" stop-color="#0F5F9C"/>
</linearGradient>
<linearGradient id="paint39_linear_3894_6556" x1="-2663.86" y1="1364.2" x2="-2779.48" y2="1364.2" gradientUnits="userSpaceOnUse">
<stop stop-color="#106DB4"/>
<stop offset="1" stop-color="#0F5F9C"/>
</linearGradient>
<linearGradient id="paint40_linear_3894_6556" x1="380.892" y1="291.459" x2="380.892" y2="515.265" gradientUnits="userSpaceOnUse">
<stop stop-color="#3ABDD6"/>
<stop offset="0.26" stop-color="#3EB8D7"/>
<stop offset="0.61" stop-color="#3CA1D2"/>
<stop offset="1" stop-color="#4076CD"/>
</linearGradient>
<linearGradient id="paint41_linear_3894_6556" x1="381.027" y1="160.167" x2="401.44" y2="305.044" gradientUnits="userSpaceOnUse">
<stop offset="0.0001" stop-color="#2EAFC7"/>
<stop offset="1" stop-color="#188AA5"/>
</linearGradient>
<linearGradient id="paint42_linear_3894_6556" x1="329.843" y1="168.68" x2="442.572" y2="288.829" gradientUnits="userSpaceOnUse">
<stop offset="0.0001" stop-color="#31A4C2"/>
<stop offset="1" stop-color="#117E99"/>
</linearGradient>
<linearGradient id="paint43_linear_3894_6556" x1="361.5" y1="162.5" x2="449" y2="298.5" gradientUnits="userSpaceOnUse">
<stop offset="0.0111732" stop-color="white"/>
<stop offset="1" stop-color="#DEEEFF"/>
</linearGradient>
<linearGradient id="paint44_linear_3894_6556" x1="330.996" y1="228.547" x2="430.009" y2="228.547" gradientUnits="userSpaceOnUse">
<stop offset="0.0111732" stop-color="#F5FAFF"/>
<stop offset="1" stop-color="#D0E7FF"/>
</linearGradient>
<linearGradient id="paint45_linear_3894_6556" x1="334.626" y1="288.621" x2="430.129" y2="288.621" gradientUnits="userSpaceOnUse">
<stop stop-color="#106DB4"/>
<stop offset="1" stop-color="#0F5F9C"/>
</linearGradient>
<linearGradient id="paint46_linear_3894_6556" x1="335.56" y1="300.836" x2="436.427" y2="407.104" gradientUnits="userSpaceOnUse">
<stop offset="0.0001" stop-color="#27A1BA"/>
<stop offset="1" stop-color="#2597B4"/>
</linearGradient>
<linearGradient id="paint47_linear_3894_6556" x1="341.738" y1="355.322" x2="371.324" y2="422.875" gradientUnits="userSpaceOnUse">
<stop offset="0.0001" stop-color="#33ABC6"/>
<stop offset="1" stop-color="#30A2BF"/>
</linearGradient>
<linearGradient id="paint48_linear_3894_6556" x1="339.801" y1="339.017" x2="345.88" y2="361.265" gradientUnits="userSpaceOnUse">
<stop offset="0.0001" stop-color="#2EA9C5"/>
<stop offset="1" stop-color="#2EA4C1"/>
</linearGradient>
<linearGradient id="paint49_linear_3894_6556" x1="342.449" y1="344.22" x2="342.705" y2="348.597" gradientUnits="userSpaceOnUse">
<stop offset="0.0001" stop-color="#2398B3"/>
<stop offset="1" stop-color="#1A849E"/>
</linearGradient>
<linearGradient id="paint50_linear_3894_6556" x1="384.719" y1="308.919" x2="425.877" y2="352.597" gradientUnits="userSpaceOnUse">
<stop offset="0.0001" stop-color="#2EA9C5"/>
<stop offset="1" stop-color="#2EA4C1"/>
</linearGradient>
<linearGradient id="paint51_linear_3894_6556" x1="387.367" y1="312.04" x2="422.68" y2="349.516" gradientUnits="userSpaceOnUse">
<stop offset="0.0001" stop-color="#27A1BA"/>
<stop offset="1" stop-color="#2597B4"/>
</linearGradient>
<linearGradient id="paint52_linear_3894_6556" x1="389.574" y1="344.221" x2="389.87" y2="348.592" gradientUnits="userSpaceOnUse">
<stop offset="0.0001" stop-color="#2EA9C5"/>
<stop offset="1" stop-color="#2EA5C2"/>
</linearGradient>
<linearGradient id="paint53_linear_3894_6556" x1="377.283" y1="426.654" x2="381.026" y2="465.292" gradientUnits="userSpaceOnUse">
<stop offset="0.0619145" stop-color="#1E8AA4"/>
<stop offset="0.646926" stop-color="#2EAFC7"/>
</linearGradient>
<linearGradient id="paint54_linear_3894_6556" x1="322.974" y1="448.267" x2="461.338" y2="477.38" gradientUnits="userSpaceOnUse">
<stop stop-color="#14819D"/>
<stop offset="1" stop-color="#1C8AA5"/>
</linearGradient>
</defs>
</svg>
